<svg width="32" height="33" viewBox="0 0 32 33" fill="none" xmlns="http://www.w3.org/2000/svg">
<path d="M29.7986 0.994545C29.9741 0.99353 30.148 1.02716 30.3105 1.09352C30.4729 1.15987 30.6207 1.25764 30.7453 1.38121C30.8702 1.50516 30.9694 1.65263 31.0371 1.81511C31.1048 1.97759 31.1397 2.15186 31.1397 2.32788C31.1397 2.50389 31.1048 2.67817 31.0371 2.84065C30.9694 3.00313 30.8702 3.15059 30.7453 3.27454L19.8519 14.1679C19.1028 14.9179 18.6821 15.9345 18.6821 16.9945C18.6821 18.0545 19.1028 19.0712 19.8519 19.8212L30.7453 30.7145C30.9963 30.9656 31.1374 31.3061 31.1374 31.6612C31.1374 32.0163 30.9963 32.3568 30.7453 32.6079C30.4942 32.8589 30.1537 33 29.7986 33C29.4435 33 29.103 32.8589 28.8519 32.6079L17.9586 21.7145C17.3377 21.0953 16.8452 20.3596 16.5091 19.5497C16.173 18.7397 16 17.8714 16 16.9945C16 16.1176 16.173 15.2494 16.5091 14.4394C16.8452 13.6295 17.3377 12.8938 17.9586 12.2745L28.8519 1.38121C28.9765 1.25764 29.1243 1.15987 29.2867 1.09352C29.4492 1.02716 29.6231 0.99353 29.7986 0.994545Z" fill="#FFB11C"/>
<path d="M13.7986 0.994543C13.9741 0.993529 14.148 1.02716 14.3105 1.09351C14.4729 1.15987 14.6207 1.25764 14.7453 1.38121C14.8702 1.50516 14.9694 1.65263 15.0371 1.81511C15.1048 1.97759 15.1397 2.15186 15.1397 2.32788C15.1397 2.50389 15.1048 2.67817 15.0371 2.84065C14.9694 3.00312 14.8702 3.15059 14.7453 3.27454L3.85192 14.1679C3.10285 14.9179 2.6821 15.9345 2.6821 16.9945C2.6821 18.0545 3.10285 19.0712 3.85192 19.8212L14.7453 30.7145C14.9963 30.9656 15.1374 31.3061 15.1374 31.6612C15.1374 32.0163 14.9963 32.3568 14.7453 32.6079C14.4942 32.8589 14.1537 33 13.7986 33C13.4435 33 13.103 32.8589 12.8519 32.6079L1.95858 21.7145C1.33774 21.0953 0.84517 20.3596 0.509084 19.5497C0.172998 18.7397 1.32258e-06 17.8714 1.39924e-06 16.9945C1.4759e-06 16.1176 0.172998 15.2494 0.509084 14.4394C0.845171 13.6295 1.33774 12.8938 1.95859 12.2745L12.8519 1.38121C12.9765 1.25764 13.1243 1.15987 13.2867 1.09351C13.4492 1.02716 13.6231 0.993529 13.7986 0.994543Z" fill="#FFB11C"/>
</svg>
