<svg width="64" height="65" viewBox="0 0 64 65" fill="none" xmlns="http://www.w3.org/2000/svg">
<g filter="url(#filter0_d_1374_3830)">
<path d="M45.7986 16.9945C45.9741 16.9935 46.148 17.0272 46.3105 17.0935C46.4729 17.1599 46.6207 17.2576 46.7453 17.3812C46.8702 17.5052 46.9694 17.6526 47.0371 17.8151C47.1048 17.9776 47.1397 18.1519 47.1397 18.3279C47.1397 18.5039 47.1048 18.6782 47.0371 18.8406C46.9694 19.0031 46.8702 19.1506 46.7453 19.2745L35.8519 30.1679C35.1028 30.9179 34.6821 31.9345 34.6821 32.9945C34.6821 34.0545 35.1028 35.0712 35.8519 35.8212L46.7453 46.7145C46.9963 46.9656 47.1374 47.3061 47.1374 47.6612C47.1374 48.0163 46.9963 48.3568 46.7453 48.6079C46.4942 48.8589 46.1537 49 45.7986 49C45.4435 49 45.103 48.8589 44.8519 48.6079L33.9586 37.7145C33.3377 37.0953 32.8452 36.3596 32.5091 35.5497C32.173 34.7397 32 33.8714 32 32.9945C32 32.1176 32.173 31.2494 32.5091 30.4394C32.8452 29.6295 33.3377 28.8938 33.9586 28.2745L44.8519 17.3812C44.9765 17.2576 45.1243 17.1599 45.2867 17.0935C45.4492 17.0272 45.6231 16.9935 45.7986 16.9945Z" fill="#FFB11C"/>
<path d="M29.7986 16.9945C29.9741 16.9935 30.148 17.0272 30.3105 17.0935C30.4729 17.1599 30.6207 17.2576 30.7453 17.3812C30.8702 17.5052 30.9694 17.6526 31.0371 17.8151C31.1048 17.9776 31.1397 18.1519 31.1397 18.3279C31.1397 18.5039 31.1048 18.6782 31.0371 18.8406C30.9694 19.0031 30.8702 19.1506 30.7453 19.2745L19.8519 30.1679C19.1028 30.9179 18.6821 31.9345 18.6821 32.9945C18.6821 34.0545 19.1028 35.0712 19.8519 35.8212L30.7453 46.7145C30.9963 46.9656 31.1374 47.3061 31.1374 47.6612C31.1374 48.0163 30.9963 48.3568 30.7453 48.6079C30.4942 48.8589 30.1537 49 29.7986 49C29.4435 49 29.103 48.8589 28.8519 48.6079L17.9586 37.7145C17.3377 37.0953 16.8452 36.3596 16.5091 35.5497C16.173 34.7397 16 33.8714 16 32.9945C16 32.1176 16.173 31.2494 16.5091 30.4394C16.8452 29.6295 17.3377 28.8938 17.9586 28.2745L28.8519 17.3812C28.9765 17.2576 29.1243 17.1599 29.2867 17.0935C29.4492 17.0272 29.6231 16.9935 29.7986 16.9945Z" fill="#FFB11C"/>
</g>
<defs>
<filter id="filter0_d_1374_3830" x="0" y="0.994629" width="63.1396" height="64.0054" filterUnits="userSpaceOnUse" color-interpolation-filters="sRGB">
<feFlood flood-opacity="0" result="BackgroundImageFix"/>
<feColorMatrix in="SourceAlpha" type="matrix" values="0 0 0 0 0 0 0 0 0 0 0 0 0 0 0 0 0 0 127 0" result="hardAlpha"/>
<feOffset/>
<feGaussianBlur stdDeviation="8"/>
<feComposite in2="hardAlpha" operator="out"/>
<feColorMatrix type="matrix" values="0 0 0 0 1 0 0 0 0 0.694118 0 0 0 0 0.109804 0 0 0 1 0"/>
<feBlend mode="normal" in2="BackgroundImageFix" result="effect1_dropShadow_1374_3830"/>
<feBlend mode="normal" in="SourceGraphic" in2="effect1_dropShadow_1374_3830" result="shape"/>
</filter>
</defs>
</svg>
