<svg width="113" height="118" viewBox="0 0 113 118" fill="none" xmlns="http://www.w3.org/2000/svg">
<path d="M84.1314 89.1029C99.6196 73.5642 99.6196 48.3709 84.1314 32.8321C68.6433 17.2934 43.532 17.2934 28.0438 32.8321C12.5556 48.3709 12.5556 73.5642 28.0438 89.1029C43.532 104.642 68.6433 104.642 84.1314 89.1029Z" fill="#6385DB"/>
<path d="M84.1314 84.9374C99.6196 69.3987 99.6196 44.2054 84.1314 28.6666C68.6433 13.1278 43.532 13.1278 28.0438 28.6666C12.5556 44.2053 12.5556 69.3987 28.0438 84.9374C43.532 100.476 68.6433 100.476 84.1314 84.9374Z" fill="#739AF0"/>
<path d="M75.4133 84.3823C75.341 84.3823 75.27 84.348 75.2253 84.2847C75.1517 84.1805 75.1753 84.0367 75.2805 83.9615C79.514 80.9449 83.0309 76.9205 85.4513 72.3237C87.9506 67.5752 89.2719 62.2081 89.2719 56.8014C89.2719 56.6734 89.3758 56.5706 89.502 56.5706C89.6296 56.5706 89.7321 56.6748 89.7321 56.8014C89.7321 62.2833 88.3924 67.7243 85.8589 72.5401C83.4056 77.2015 79.84 81.2813 75.5474 84.3388C75.5067 84.3678 75.4593 84.3823 75.4133 84.3823Z" fill="white"/>
<path d="M22.6783 57.0334C22.5508 57.0334 22.4482 56.9292 22.4482 56.8026C22.4482 49.4543 24.7609 42.4687 29.1363 36.6017C32.2049 32.4876 36.2306 29.0779 40.7783 26.7419C45.5455 24.2925 50.6967 23.0513 56.091 23.0513C65.7451 23.0513 74.947 27.222 81.3353 34.4925C81.4194 34.5888 81.4102 34.7352 81.3142 34.8196C81.2182 34.9041 81.0736 34.8948 80.9882 34.7985C74.6866 27.627 65.611 23.5142 56.0897 23.5142C50.7703 23.5142 45.6888 24.7383 40.9873 27.1534C36.5028 29.4578 32.5323 32.82 29.5044 36.8787C25.1895 42.6652 22.9084 49.5545 22.9084 56.8026C22.9097 56.9292 22.8059 57.0334 22.6783 57.0334Z" fill="white"/>
<path d="M36.0344 50V42.7273H38.9038C39.453 42.7273 39.9218 42.8255 40.31 43.022C40.7006 43.2161 40.9978 43.492 41.2013 43.8494C41.4073 44.2045 41.5103 44.6224 41.5103 45.103C41.5103 45.5859 41.4061 46.0014 41.1978 46.3494C40.9895 46.6951 40.6876 46.9602 40.2923 47.1449C39.8993 47.3295 39.4234 47.4219 38.8647 47.4219H36.9435V46.1861H38.6161C38.9097 46.1861 39.1535 46.1458 39.3477 46.0653C39.5418 45.9848 39.6862 45.8641 39.7809 45.7031C39.878 45.5421 39.9265 45.3421 39.9265 45.103C39.9265 44.8615 39.878 44.6579 39.7809 44.4922C39.6862 44.3265 39.5406 44.201 39.3441 44.1158C39.15 44.0282 38.9049 43.9844 38.609 43.9844H37.5721V50H36.0344ZM39.962 46.6903L41.7695 50H40.0721L38.3036 46.6903H39.962ZM44.1239 50.103C43.7759 50.103 43.4658 50.0426 43.1935 49.9219C42.9213 49.7988 42.7058 49.6177 42.5472 49.3786C42.391 49.1371 42.3129 48.8364 42.3129 48.4766C42.3129 48.1735 42.3685 47.919 42.4798 47.7131C42.591 47.5071 42.7425 47.3414 42.9343 47.2159C43.1261 47.0904 43.3439 46.9957 43.5877 46.9318C43.8339 46.8679 44.092 46.8229 44.3619 46.7969C44.6791 46.7637 44.9348 46.733 45.1289 46.7045C45.323 46.6738 45.4639 46.6288 45.5515 46.5696C45.6391 46.5104 45.6829 46.4228 45.6829 46.3068V46.2855C45.6829 46.0606 45.6119 45.8866 45.4698 45.7635C45.3301 45.6404 45.1313 45.5788 44.8732 45.5788C44.601 45.5788 44.3844 45.6392 44.2234 45.7599C44.0624 45.8783 43.9558 46.0275 43.9038 46.2074L42.5046 46.0938C42.5756 45.7623 42.7153 45.4759 42.9237 45.2344C43.132 44.9905 43.4007 44.8035 43.7298 44.6733C44.0612 44.5407 44.4447 44.4744 44.8803 44.4744C45.1834 44.4744 45.4734 44.5099 45.7504 44.581C46.0297 44.652 46.2771 44.7621 46.4925 44.9112C46.7103 45.0604 46.882 45.2521 47.0075 45.4865C47.1329 45.7185 47.1957 45.9967 47.1957 46.321V50H45.761V49.2436H45.7184C45.6308 49.4141 45.5136 49.5644 45.3668 49.6946C45.2201 49.8224 45.0437 49.9231 44.8377 49.9964C44.6317 50.0675 44.3938 50.103 44.1239 50.103ZM44.5572 49.0589C44.7797 49.0589 44.9762 49.0152 45.1467 48.9276C45.3171 48.8376 45.4509 48.7169 45.5479 48.5653C45.645 48.4138 45.6935 48.2422 45.6935 48.0504V47.4716C45.6462 47.5024 45.5811 47.5308 45.4982 47.5568C45.4177 47.5805 45.3266 47.603 45.2248 47.6243C45.123 47.6432 45.0212 47.661 44.9194 47.6776C44.8176 47.6918 44.7253 47.7048 44.6424 47.7166C44.4648 47.7427 44.3098 47.7841 44.1772 47.8409C44.0446 47.8977 43.9416 47.9747 43.8683 48.0717C43.7949 48.1664 43.7582 48.2848 43.7582 48.4268C43.7582 48.6328 43.8327 48.7902 43.9819 48.8991C44.1334 49.0057 44.3252 49.0589 44.5572 49.0589ZM49.8821 46.8466V50H48.3693V44.5455H49.8111V45.5078H49.875C49.9957 45.1906 50.1982 44.9396 50.4822 44.755C50.7663 44.5679 51.1108 44.4744 51.5156 44.4744C51.8944 44.4744 52.2247 44.5573 52.5064 44.723C52.7881 44.8887 53.0071 45.1255 53.1634 45.4332C53.3196 45.7386 53.3977 46.1032 53.3977 46.527V50H51.8849V46.7969C51.8873 46.4631 51.8021 46.2027 51.6293 46.0156C51.4564 45.8262 51.2185 45.7315 50.9155 45.7315C50.7119 45.7315 50.532 45.7753 50.3757 45.8629C50.2218 45.9505 50.1011 46.0784 50.0135 46.2464C49.9283 46.4122 49.8845 46.6122 49.8821 46.8466ZM56.6 50.0888C56.1857 50.0888 55.8104 49.9822 55.4743 49.7692C55.1404 49.5537 54.8753 49.2377 54.6788 48.821C54.4847 48.402 54.3876 47.8883 54.3876 47.2798C54.3876 46.6548 54.4882 46.1352 54.6895 45.7209C54.8907 45.3042 55.1582 44.9929 55.492 44.7869C55.8282 44.5786 56.1963 44.4744 56.5964 44.4744C56.9018 44.4744 57.1563 44.5265 57.3599 44.6307C57.5659 44.7325 57.7316 44.8603 57.8571 45.0142C57.9849 45.1657 58.082 45.3149 58.1483 45.4616H58.1944V42.7273H59.7037V50H58.2122V49.1264H58.1483C58.0772 49.2779 57.9766 49.4283 57.8464 49.5774C57.7186 49.7242 57.5517 49.8461 57.3457 49.9432C57.1421 50.0402 56.8935 50.0888 56.6 50.0888ZM57.0794 48.8849C57.3232 48.8849 57.5292 48.8187 57.6973 48.6861C57.8677 48.5511 57.9979 48.3629 58.0879 48.1214C58.1802 47.88 58.2264 47.5971 58.2264 47.2727C58.2264 46.9484 58.1814 46.6667 58.0914 46.4276C58.0015 46.1884 57.8713 46.0038 57.7008 45.8736C57.5304 45.7434 57.3232 45.6783 57.0794 45.6783C56.8308 45.6783 56.6213 45.7457 56.4508 45.8807C56.2804 46.0156 56.1513 46.2027 56.0637 46.4418C55.9761 46.6809 55.9324 46.9579 55.9324 47.2727C55.9324 47.59 55.9761 47.8705 56.0637 48.1143C56.1537 48.3558 56.2827 48.5452 56.4508 48.6825C56.6213 48.8175 56.8308 48.8849 57.0794 48.8849ZM63.4119 50.1065C62.8603 50.1065 62.3833 49.9893 61.9808 49.755C61.5807 49.5182 61.2718 49.1892 61.054 48.7678C60.8362 48.344 60.7273 47.8527 60.7273 47.294C60.7273 46.7306 60.8362 46.2382 61.054 45.8168C61.2718 45.393 61.5807 45.0639 61.9808 44.8295C62.3833 44.5928 62.8603 44.4744 63.4119 44.4744C63.9635 44.4744 64.4394 44.5928 64.8395 44.8295C65.242 45.0639 65.5521 45.393 65.7699 45.8168C65.9877 46.2382 66.0966 46.7306 66.0966 47.294C66.0966 47.8527 65.9877 48.344 65.7699 48.7678C65.5521 49.1892 65.242 49.5182 64.8395 49.755C64.4394 49.9893 63.9635 50.1065 63.4119 50.1065ZM63.419 48.9347C63.67 48.9347 63.8795 48.8636 64.0476 48.7216C64.2157 48.5772 64.3423 48.3807 64.4276 48.1321C64.5152 47.8835 64.5589 47.6006 64.5589 47.2834C64.5589 46.9661 64.5152 46.6832 64.4276 46.4347C64.3423 46.1861 64.2157 45.9896 64.0476 45.8452C63.8795 45.7008 63.67 45.6286 63.419 45.6286C63.1657 45.6286 62.9527 45.7008 62.7798 45.8452C62.6094 45.9896 62.4804 46.1861 62.3928 46.4347C62.3075 46.6832 62.2649 46.9661 62.2649 47.2834C62.2649 47.6006 62.3075 47.8835 62.3928 48.1321C62.4804 48.3807 62.6094 48.5772 62.7798 48.7216C62.9527 48.8636 63.1657 48.9347 63.419 48.9347ZM67.0803 50V44.5455H68.522V45.5078H68.5859C68.6996 45.1882 68.889 44.9361 69.1541 44.7514C69.4193 44.5668 69.7365 44.4744 70.1058 44.4744C70.4799 44.4744 70.7983 44.5679 71.0611 44.755C71.3239 44.9396 71.4991 45.1906 71.5866 45.5078H71.6435C71.7547 45.1953 71.956 44.9455 72.2472 44.7585C72.5407 44.5691 72.8875 44.4744 73.2876 44.4744C73.7966 44.4744 74.2098 44.6366 74.527 44.9609C74.8466 45.2829 75.0064 45.7398 75.0064 46.3317V50H73.4972V46.63C73.4972 46.3269 73.4167 46.0997 73.2557 45.9482C73.0947 45.7966 72.8935 45.7209 72.652 45.7209C72.3774 45.7209 72.1631 45.8085 72.0092 45.9837C71.8554 46.1565 71.7784 46.3849 71.7784 46.669V50H70.3118V46.598C70.3118 46.3305 70.2348 46.1174 70.081 45.9588C69.9295 45.8002 69.7294 45.7209 69.4808 45.7209C69.3127 45.7209 69.1612 45.7635 69.0263 45.8487C68.8937 45.9316 68.7884 46.0488 68.7102 46.2003C68.6321 46.3494 68.593 46.5246 68.593 46.7259V50H67.0803ZM49.3059 56.8189C49.2775 56.5324 49.1556 56.3099 48.9402 56.1513C48.7247 55.9927 48.4324 55.9134 48.063 55.9134C47.8121 55.9134 47.6002 55.9489 47.4274 56.0199C47.2546 56.0885 47.122 56.1844 47.0297 56.3075C46.9397 56.4306 46.8947 56.5703 46.8947 56.7266C46.89 56.8568 46.9172 56.9704 46.9764 57.0675C47.0379 57.1645 47.122 57.2486 47.2285 57.3196C47.335 57.3883 47.4582 57.4486 47.5978 57.5007C47.7375 57.5504 47.8867 57.593 48.0453 57.6286L48.6987 57.7848C49.0159 57.8558 49.3071 57.9505 49.5723 58.0689C49.8374 58.1873 50.0671 58.3329 50.2612 58.5057C50.4553 58.6785 50.6056 58.8821 50.7122 59.1165C50.8211 59.3509 50.8767 59.6196 50.8791 59.9226C50.8767 60.3677 50.7631 60.7536 50.5382 61.0803C50.3156 61.4046 49.9937 61.6567 49.5723 61.8366C49.1532 62.0142 48.6478 62.103 48.0559 62.103C47.4688 62.103 46.9574 62.013 46.5218 61.8331C46.0886 61.6532 45.7501 61.3868 45.5062 61.0341C45.2647 60.679 45.1381 60.2398 45.1262 59.7166H46.6142C46.6307 59.9605 46.7006 60.1641 46.8237 60.3274C46.9492 60.4884 47.1161 60.6103 47.3244 60.6932C47.5351 60.7737 47.773 60.8139 48.0382 60.8139C48.2986 60.8139 48.5247 60.776 48.7164 60.7003C48.9106 60.6245 49.0609 60.5192 49.1674 60.3842C49.274 60.2493 49.3272 60.0942 49.3272 59.919C49.3272 59.7557 49.2787 59.6184 49.1816 59.5071C49.0869 59.3958 48.9473 59.3011 48.7626 59.223C48.5803 59.1449 48.3566 59.0739 48.0914 59.0099L47.2995 58.8111C46.6864 58.6619 46.2022 58.4287 45.8471 58.1115C45.492 57.7943 45.3156 57.367 45.318 56.8295C45.3156 56.3892 45.4328 56.0045 45.6696 55.6754C45.9087 55.3464 46.2366 55.0895 46.6532 54.9048C47.0699 54.7202 47.5434 54.6278 48.0737 54.6278C48.6135 54.6278 49.0846 54.7202 49.487 54.9048C49.8919 55.0895 50.2067 55.3464 50.4316 55.6754C50.6565 56.0045 50.7725 56.3857 50.7797 56.8189H49.3059ZM54.3494 62.1065C53.7978 62.1065 53.3208 61.9893 52.9183 61.755C52.5182 61.5182 52.2093 61.1892 51.9915 60.7678C51.7737 60.344 51.6648 59.8527 51.6648 59.294C51.6648 58.7306 51.7737 58.2382 51.9915 57.8168C52.2093 57.393 52.5182 57.0639 52.9183 56.8295C53.3208 56.5928 53.7978 56.4744 54.3494 56.4744C54.901 56.4744 55.3769 56.5928 55.777 56.8295C56.1795 57.0639 56.4896 57.393 56.7074 57.8168C56.9252 58.2382 57.0341 58.7306 57.0341 59.294C57.0341 59.8527 56.9252 60.344 56.7074 60.7678C56.4896 61.1892 56.1795 61.5182 55.777 61.755C55.3769 61.9893 54.901 62.1065 54.3494 62.1065ZM54.3565 60.9347C54.6075 60.9347 54.817 60.8636 54.9851 60.7216C55.1532 60.5772 55.2798 60.3807 55.3651 60.1321C55.4527 59.8835 55.4964 59.6006 55.4964 59.2834C55.4964 58.9661 55.4527 58.6832 55.3651 58.4347C55.2798 58.1861 55.1532 57.9896 54.9851 57.8452C54.817 57.7008 54.6075 57.6286 54.3565 57.6286C54.1032 57.6286 53.8902 57.7008 53.7173 57.8452C53.5469 57.9896 53.4179 58.1861 53.3303 58.4347C53.245 58.6832 53.2024 58.9661 53.2024 59.2834C53.2024 59.6006 53.245 59.8835 53.3303 60.1321C53.4179 60.3807 53.5469 60.5772 53.7173 60.7216C53.8902 60.8636 54.1032 60.9347 54.3565 60.9347ZM59.5305 54.7273V62H58.0178V54.7273H59.5305ZM63.2069 62.1065C62.6552 62.1065 62.1782 61.9893 61.7757 61.755C61.3757 61.5182 61.0667 61.1892 60.8489 60.7678C60.6311 60.344 60.5222 59.8527 60.5222 59.294C60.5222 58.7306 60.6311 58.2382 60.8489 57.8168C61.0667 57.393 61.3757 57.0639 61.7757 56.8295C62.1782 56.5928 62.6552 56.4744 63.2069 56.4744C63.7585 56.4744 64.2343 56.5928 64.6344 56.8295C65.0369 57.0639 65.347 57.393 65.5648 57.8168C65.7826 58.2382 65.8915 58.7306 65.8915 59.294C65.8915 59.8527 65.7826 60.344 65.5648 60.7678C65.347 61.1892 65.0369 61.5182 64.6344 61.755C64.2343 61.9893 63.7585 62.1065 63.2069 62.1065ZM63.214 60.9347C63.4649 60.9347 63.6744 60.8636 63.8425 60.7216C64.0106 60.5772 64.1373 60.3807 64.2225 60.1321C64.3101 59.8835 64.3539 59.6006 64.3539 59.2834C64.3539 58.9661 64.3101 58.6832 64.2225 58.4347C64.1373 58.1861 64.0106 57.9896 63.8425 57.8452C63.6744 57.7008 63.4649 57.6286 63.214 57.6286C62.9606 57.6286 62.7476 57.7008 62.5748 57.8452C62.4043 57.9896 62.2753 58.1861 62.1877 58.4347C62.1025 58.6832 62.0598 58.9661 62.0598 59.2834C62.0598 59.6006 62.1025 59.8835 62.1877 60.1321C62.2753 60.3807 62.4043 60.5772 62.5748 60.7216C62.7476 60.8636 62.9606 60.9347 63.214 60.9347ZM39.9713 74L37.8904 66.7273H39.57L40.7739 71.7805H40.8343L42.1624 66.7273H43.6006L44.9252 71.7912H44.9891L46.1929 66.7273H47.8726L45.7916 74H44.2931L42.9081 69.245H42.8513L41.4699 74H39.9713ZM48.6672 74V68.5455H50.18V74H48.6672ZM49.4271 67.8423C49.2022 67.8423 49.0093 67.7678 48.8483 67.6186C48.6897 67.4671 48.6104 67.286 48.6104 67.0753C48.6104 66.867 48.6897 66.6882 48.8483 66.5391C49.0093 66.3875 49.2022 66.3118 49.4271 66.3118C49.652 66.3118 49.8438 66.3875 50.0024 66.5391C50.1634 66.6882 50.2439 66.867 50.2439 67.0753C50.2439 67.286 50.1634 67.4671 50.0024 67.6186C49.8438 67.7678 49.652 67.8423 49.4271 67.8423ZM52.9046 70.8466V74H51.3918V68.5455H52.8335V69.5078H52.8975C53.0182 69.1906 53.2206 68.9396 53.5047 68.755C53.7888 68.5679 54.1333 68.4744 54.5381 68.4744C54.9169 68.4744 55.2471 68.5573 55.5289 68.723C55.8106 68.8887 56.0296 69.1255 56.1858 69.4332C56.3421 69.7386 56.4202 70.1032 56.4202 70.527V74H54.9074V70.7969C54.9098 70.4631 54.8245 70.2027 54.6517 70.0156C54.4789 69.8262 54.241 69.7315 53.9379 69.7315C53.7343 69.7315 53.5544 69.7753 53.3982 69.8629C53.2443 69.9505 53.1235 70.0784 53.036 70.2464C52.9507 70.4122 52.9069 70.6122 52.9046 70.8466ZM59.1253 70.8466V74H57.6125V68.5455H59.0542V69.5078H59.1182C59.2389 69.1906 59.4413 68.9396 59.7254 68.755C60.0095 68.5679 60.354 68.4744 60.7588 68.4744C61.1376 68.4744 61.4678 68.5573 61.7496 68.723C62.0313 68.8887 62.2503 69.1255 62.4065 69.4332C62.5628 69.7386 62.6409 70.1032 62.6409 70.527V74H61.1281V70.7969C61.1305 70.4631 61.0452 70.2027 60.8724 70.0156C60.6996 69.8262 60.4617 69.7315 60.1586 69.7315C59.955 69.7315 59.7751 69.7753 59.6189 69.8629C59.465 69.9505 59.3443 70.0784 59.2567 70.2464C59.1714 70.4122 59.1276 70.6122 59.1253 70.8466ZM66.319 74.1065C65.7579 74.1065 65.2749 73.9929 64.8701 73.7656C64.4677 73.536 64.1575 73.2116 63.9397 72.7926C63.7219 72.3712 63.613 71.8729 63.613 71.2976C63.613 70.7365 63.7219 70.2441 63.9397 69.8203C64.1575 69.3965 64.4641 69.0663 64.8595 68.8295C65.2572 68.5928 65.7236 68.4744 66.2586 68.4744C66.6185 68.4744 66.9535 68.5324 67.2636 68.6484C67.5761 68.7621 67.8483 68.9337 68.0803 69.1634C68.3147 69.393 68.497 69.6818 68.6272 70.0298C68.7574 70.3755 68.8225 70.7803 68.8225 71.2443V71.6598H64.2167V70.7223H67.3985C67.3985 70.5045 67.3512 70.3116 67.2565 70.1435C67.1618 69.9754 67.0304 69.844 66.8623 69.7493C66.6966 69.6522 66.5036 69.6037 66.2835 69.6037C66.0538 69.6037 65.8502 69.657 65.6727 69.7635C65.4975 69.8677 65.3602 70.0085 65.2607 70.1861C65.1613 70.3613 65.1104 70.5566 65.108 70.772V71.6634C65.108 71.9332 65.1578 72.1664 65.2572 72.3629C65.359 72.5594 65.5022 72.7109 65.6869 72.8175C65.8715 72.924 66.0905 72.9773 66.3438 72.9773C66.5119 72.9773 66.6658 72.9536 66.8055 72.9062C66.9452 72.8589 67.0647 72.7879 67.1642 72.6932C67.2636 72.5985 67.3393 72.4825 67.3914 72.3452L68.7906 72.4375C68.7195 72.7737 68.574 73.0672 68.3538 73.3182C68.136 73.5668 67.8543 73.7609 67.5086 73.9006C67.1653 74.0379 66.7688 74.1065 66.319 74.1065ZM69.8097 74V68.5455H71.2764V69.4972H71.3332C71.4326 69.1586 71.5995 68.9029 71.8339 68.7301C72.0683 68.5549 72.3382 68.4673 72.6436 68.4673C72.7193 68.4673 72.801 68.4721 72.8886 68.4815C72.9762 68.491 73.0531 68.504 73.1194 68.5206V69.8629C73.0484 69.8416 72.9501 69.8227 72.8247 69.8061C72.6992 69.7895 72.5844 69.7812 72.4802 69.7812C72.2577 69.7812 72.0588 69.8298 71.8836 69.9268C71.7108 70.0215 71.5735 70.1541 71.4717 70.3246C71.3722 70.495 71.3225 70.6915 71.3225 70.9141V74H69.8097Z" fill="white"/>
</svg>
