<svg width="33" height="33" viewBox="0 0 33 33" fill="none" xmlns="http://www.w3.org/2000/svg">
<path d="M2.33325 33.0001C2.15778 33.0011 1.98383 32.9675 1.82138 32.9011C1.65893 32.8348 1.51117 32.737 1.38659 32.6134C1.26161 32.4895 1.16242 32.342 1.09473 32.1795C1.02704 32.017 0.992188 31.8428 0.992188 31.6668C0.992188 31.4907 1.02704 31.3165 1.09473 31.154C1.16242 30.9915 1.26161 30.844 1.38659 30.7201L12.2799 19.8268C13.029 19.0767 13.4497 18.0601 13.4497 17.0001C13.4497 15.9401 13.029 14.9234 12.2799 14.1734L1.38659 3.28008C1.13551 3.02901 0.994463 2.68849 0.994463 2.33342C0.994463 1.97835 1.13551 1.63782 1.38659 1.38675C1.63766 1.13568 1.97818 0.994629 2.33325 0.994629C2.68832 0.994629 3.02885 1.13568 3.27992 1.38675L14.1733 12.2801C14.7941 12.8994 15.2867 13.635 15.6228 14.445C15.9588 15.2549 16.1318 16.1232 16.1318 17.0001C16.1318 17.877 15.9588 18.7453 15.6228 19.5552C15.2867 20.3651 14.7941 21.1008 14.1733 21.7201L3.27992 32.6134C3.15533 32.737 3.00758 32.8348 2.84513 32.9011C2.68268 32.9675 2.50873 33.0011 2.33325 33.0001Z" fill="#FFB11C"/>
<path d="M18.3333 33.0001C18.1578 33.0011 17.9838 32.9675 17.8214 32.9011C17.6589 32.8348 17.5112 32.737 17.3866 32.6134C17.2616 32.4895 17.1624 32.342 17.0947 32.1795C17.027 32.017 16.9922 31.8428 16.9922 31.6668C16.9922 31.4907 17.027 31.3165 17.0947 31.154C17.1624 30.9915 17.2616 30.844 17.3866 30.7201L28.2799 19.8268C29.029 19.0767 29.4497 18.0601 29.4497 17.0001C29.4497 15.9401 29.029 14.9234 28.2799 14.1734L17.3866 3.28008C17.1355 3.02901 16.9945 2.68849 16.9945 2.33342C16.9945 1.97835 17.1355 1.63782 17.3866 1.38675C17.6377 1.13568 17.9782 0.994629 18.3333 0.994629C18.6883 0.994629 19.0288 1.13568 19.2799 1.38675L30.1733 12.2801C30.7941 12.8994 31.2867 13.635 31.6228 14.445C31.9588 15.2549 32.1318 16.1232 32.1318 17.0001C32.1318 17.877 31.9588 18.7453 31.6228 19.5552C31.2867 20.3651 30.7941 21.1008 30.1733 21.7201L19.2799 32.6134C19.1553 32.737 19.0076 32.8348 18.8451 32.9011C18.6827 32.9675 18.5087 33.0011 18.3333 33.0001Z" fill="#FFB11C"/>
</svg>
