<svg width="65" height="65" viewBox="0 0 65 65" fill="none" xmlns="http://www.w3.org/2000/svg">
<g filter="url(#filter0_d_1374_3829)">
<path d="M18.3333 49.0001C18.1578 49.0011 17.9838 48.9675 17.8214 48.9011C17.6589 48.8348 17.5112 48.737 17.3866 48.6134C17.2616 48.4895 17.1624 48.342 17.0947 48.1795C17.027 48.017 16.9922 47.8428 16.9922 47.6668C16.9922 47.4907 17.027 47.3165 17.0947 47.154C17.1624 46.9915 17.2616 46.844 17.3866 46.7201L28.2799 35.8268C29.029 35.0767 29.4497 34.0601 29.4497 33.0001C29.4497 31.9401 29.029 30.9234 28.2799 30.1734L17.3866 19.2801C17.1355 19.029 16.9945 18.6885 16.9945 18.3334C16.9945 17.9783 17.1355 17.6378 17.3866 17.3868C17.6377 17.1357 17.9782 16.9946 18.3333 16.9946C18.6883 16.9946 19.0288 17.1357 19.2799 17.3868L30.1733 28.2801C30.7941 28.8994 31.2867 29.635 31.6228 30.445C31.9588 31.2549 32.1318 32.1232 32.1318 33.0001C32.1318 33.877 31.9588 34.7453 31.6228 35.5552C31.2867 36.3651 30.7941 37.1008 30.1733 37.7201L19.2799 48.6134C19.1553 48.737 19.0076 48.8348 18.8451 48.9011C18.6827 48.9675 18.5087 49.0011 18.3333 49.0001Z" fill="#FFB11C"/>
<path d="M34.3333 49.0001C34.1578 49.0011 33.9838 48.9675 33.8214 48.9011C33.6589 48.8348 33.5112 48.737 33.3866 48.6134C33.2616 48.4895 33.1624 48.342 33.0947 48.1795C33.027 48.017 32.9922 47.8428 32.9922 47.6668C32.9922 47.4907 33.027 47.3165 33.0947 47.154C33.1624 46.9915 33.2616 46.844 33.3866 46.7201L44.2799 35.8268C45.029 35.0767 45.4497 34.0601 45.4497 33.0001C45.4497 31.9401 45.029 30.9234 44.2799 30.1734L33.3866 19.2801C33.1355 19.029 32.9945 18.6885 32.9945 18.3334C32.9945 17.9783 33.1355 17.6378 33.3866 17.3868C33.6377 17.1357 33.9782 16.9946 34.3333 16.9946C34.6883 16.9946 35.0288 17.1357 35.2799 17.3868L46.1733 28.2801C46.7941 28.8994 47.2867 29.635 47.6228 30.445C47.9588 31.2549 48.1318 32.1232 48.1318 33.0001C48.1318 33.877 47.9588 34.7453 47.6228 35.5552C47.2867 36.3651 46.7941 37.1008 46.1733 37.7201L35.2799 48.6134C35.1553 48.737 35.0076 48.8348 34.8451 48.9011C34.6827 48.9675 34.5087 49.0011 34.3333 49.0001Z" fill="#FFB11C"/>
</g>
<defs>
<filter id="filter0_d_1374_3829" x="0.992188" y="0.994629" width="63.1396" height="64.0054" filterUnits="userSpaceOnUse" color-interpolation-filters="sRGB">
<feFlood flood-opacity="0" result="BackgroundImageFix"/>
<feColorMatrix in="SourceAlpha" type="matrix" values="0 0 0 0 0 0 0 0 0 0 0 0 0 0 0 0 0 0 127 0" result="hardAlpha"/>
<feOffset/>
<feGaussianBlur stdDeviation="8"/>
<feComposite in2="hardAlpha" operator="out"/>
<feColorMatrix type="matrix" values="0 0 0 0 1 0 0 0 0 0.694118 0 0 0 0 0.109804 0 0 0 1 0"/>
<feBlend mode="normal" in2="BackgroundImageFix" result="effect1_dropShadow_1374_3829"/>
<feBlend mode="normal" in="SourceGraphic" in2="effect1_dropShadow_1374_3829" result="shape"/>
</filter>
</defs>
</svg>
