<svg width="113" height="117" viewBox="0 0 113 117" fill="none" xmlns="http://www.w3.org/2000/svg">
<path d="M84.1314 88.5717C99.6196 73.0329 99.6196 47.8396 84.1314 32.3009C68.6432 16.7621 43.532 16.7621 28.0438 32.3009C12.5556 47.8396 12.5556 73.0329 28.0438 88.5717C43.532 104.11 68.6432 104.11 84.1314 88.5717Z" fill="#B6702B"/>
<path d="M84.1314 84.4062C99.6196 68.8674 99.6196 43.6741 84.1314 28.1353C68.6432 12.5966 43.532 12.5966 28.0438 28.1353C12.5556 43.6741 12.5556 68.8674 28.0438 84.4062C43.532 99.9449 68.6433 99.9449 84.1314 84.4062Z" fill="#E18933"/>
<path d="M49.469 48.8189C49.4406 48.5324 49.3187 48.3099 49.1032 48.1513C48.8878 47.9927 48.5954 47.9134 48.2261 47.9134C47.9752 47.9134 47.7633 47.9489 47.5905 48.0199C47.4176 48.0885 47.2851 48.1844 47.1927 48.3075C47.1028 48.4306 47.0578 48.5703 47.0578 48.7266C47.0531 48.8568 47.0803 48.9704 47.1395 49.0675C47.201 49.1645 47.2851 49.2486 47.3916 49.3196C47.4981 49.3883 47.6212 49.4486 47.7609 49.5007C47.9006 49.5504 48.0497 49.593 48.2084 49.6286L48.8618 49.7848C49.179 49.8558 49.4702 49.9505 49.7354 50.0689C50.0005 50.1873 50.2301 50.3329 50.4243 50.5057C50.6184 50.6785 50.7687 50.8821 50.8753 51.1165C50.9842 51.3509 51.0398 51.6196 51.0422 51.9226C51.0398 52.3677 50.9262 52.7536 50.7013 53.0803C50.4787 53.4046 50.1568 53.6567 49.7354 53.8366C49.3163 54.0142 48.8109 54.103 48.219 54.103C47.6319 54.103 47.1205 54.013 46.6849 53.8331C46.2517 53.6532 45.9131 53.3868 45.6693 53.0341C45.4278 52.679 45.3012 52.2398 45.2893 51.7166H46.7773C46.7938 51.9605 46.8637 52.1641 46.9868 52.3274C47.1122 52.4884 47.2791 52.6103 47.4875 52.6932C47.6982 52.7737 47.9361 52.8139 48.2013 52.8139C48.4617 52.8139 48.6878 52.776 48.8795 52.7003C49.0737 52.6245 49.224 52.5192 49.3305 52.3842C49.4371 52.2493 49.4903 52.0942 49.4903 51.919C49.4903 51.7557 49.4418 51.6184 49.3447 51.5071C49.25 51.3958 49.1104 51.3011 48.9257 51.223C48.7434 51.1449 48.5197 51.0739 48.2545 51.0099L47.4626 50.8111C46.8495 50.6619 46.3653 50.4287 46.0102 50.1115C45.6551 49.7943 45.4787 49.367 45.4811 48.8295C45.4787 48.3892 45.5959 48.0045 45.8327 47.6754C46.0718 47.3464 46.3997 47.0895 46.8163 46.9048C47.233 46.7202 47.7065 46.6278 48.2368 46.6278C48.7765 46.6278 49.2477 46.7202 49.6501 46.9048C50.055 47.0895 50.3698 47.3464 50.5947 47.6754C50.8196 48.0045 50.9356 48.3857 50.9427 48.8189H49.469ZM52.048 56.0455V48.5455H53.5395V49.4616H53.607C53.6733 49.3149 53.7691 49.1657 53.8946 49.0142C54.0225 48.8603 54.1882 48.7325 54.3918 48.6307C54.5977 48.5265 54.8534 48.4744 55.1588 48.4744C55.5566 48.4744 55.9235 48.5786 56.2597 48.7869C56.5959 48.9929 56.8646 49.3042 57.0658 49.7209C57.267 50.1352 57.3676 50.6548 57.3676 51.2798C57.3676 51.8883 57.2694 52.402 57.0729 52.821C56.8788 53.2377 56.6136 53.5537 56.2774 53.7692C55.9436 53.9822 55.5696 54.0888 55.1553 54.0888C54.8617 54.0888 54.6119 54.0402 54.406 53.9432C54.2024 53.8461 54.0355 53.7242 53.9053 53.5774C53.7751 53.4283 53.6756 53.2779 53.607 53.1264H53.5608V56.0455H52.048ZM53.5289 51.2727C53.5289 51.5971 53.5738 51.88 53.6638 52.1214C53.7538 52.3629 53.884 52.5511 54.0544 52.6861C54.2249 52.8187 54.432 52.8849 54.6759 52.8849C54.9221 52.8849 55.1304 52.8175 55.3009 52.6825C55.4713 52.5452 55.6003 52.3558 55.6879 52.1143C55.7779 51.8705 55.8229 51.59 55.8229 51.2727C55.8229 50.9579 55.7791 50.6809 55.6915 50.4418C55.6039 50.2027 55.4749 50.0156 55.3044 49.8807C55.134 49.7457 54.9244 49.6783 54.6759 49.6783C54.4297 49.6783 54.2213 49.7434 54.0509 49.8736C53.8828 50.0038 53.7538 50.1884 53.6638 50.4276C53.5738 50.6667 53.5289 50.9484 53.5289 51.2727ZM59.8889 46.7273V54H58.3762V46.7273H59.8889ZM61.1008 54V48.5455H62.6135V54H61.1008ZM61.8607 47.8423C61.6358 47.8423 61.4429 47.7678 61.2819 47.6186C61.1233 47.4671 61.0439 47.286 61.0439 47.0753C61.0439 46.867 61.1233 46.6882 61.2819 46.5391C61.4429 46.3875 61.6358 46.3118 61.8607 46.3118C62.0856 46.3118 62.2774 46.3875 62.436 46.5391C62.597 46.6882 62.6775 46.867 62.6775 47.0753C62.6775 47.286 62.597 47.4671 62.436 47.6186C62.2774 47.7678 62.0856 47.8423 61.8607 47.8423ZM66.7267 48.5455V49.6818H63.4419V48.5455H66.7267ZM64.1876 47.2386H65.7004V52.3239C65.7004 52.4635 65.7217 52.5724 65.7643 52.6506C65.8069 52.7263 65.8661 52.7796 65.9419 52.8104C66.02 52.8411 66.1099 52.8565 66.2117 52.8565C66.2828 52.8565 66.3538 52.8506 66.4248 52.8388C66.4958 52.8246 66.5503 52.8139 66.5882 52.8068L66.8261 53.9325C66.7503 53.9562 66.6438 53.9834 66.5065 54.0142C66.3692 54.0473 66.2023 54.0675 66.0058 54.0746C65.6412 54.0888 65.3216 54.0402 65.047 53.929C64.7747 53.8177 64.5628 53.6449 64.4113 53.4105C64.2598 53.1761 64.1852 52.8802 64.1876 52.5227V47.2386ZM38.7415 66V58.7273H43.642V59.995H40.2791V61.728H43.3899V62.9957H40.2791V64.7322H43.6562V66H38.7415ZM48.4405 68.0455V65.1264H48.3944C48.3233 65.2779 48.2227 65.4283 48.0925 65.5774C47.9647 65.7242 47.7978 65.8461 47.5918 65.9432C47.3882 66.0402 47.1396 66.0888 46.8461 66.0888C46.4318 66.0888 46.0565 65.9822 45.7203 65.7692C45.3865 65.5537 45.1214 65.2377 44.9249 64.821C44.7308 64.402 44.6337 63.8883 44.6337 63.2798C44.6337 62.6548 44.7343 62.1352 44.9355 61.7209C45.1368 61.3042 45.4043 60.9929 45.7381 60.7869C46.0743 60.5786 46.4424 60.4744 46.8425 60.4744C47.1479 60.4744 47.4024 60.5265 47.606 60.6307C47.812 60.7325 47.9777 60.8603 48.1032 61.0142C48.231 61.1657 48.3281 61.3149 48.3944 61.4616H48.4583V60.5455H49.9498V68.0455H48.4405ZM47.3255 64.8849C47.5693 64.8849 47.7753 64.8187 47.9434 64.6861C48.1138 64.5511 48.244 64.3629 48.334 64.1214C48.4263 63.88 48.4725 63.5971 48.4725 63.2727C48.4725 62.9484 48.4275 62.6667 48.3375 62.4276C48.2476 62.1884 48.1174 62.0038 47.9469 61.8736C47.7765 61.7434 47.5693 61.6783 47.3255 61.6783C47.0769 61.6783 46.8674 61.7457 46.6969 61.8807C46.5265 62.0156 46.3974 62.2027 46.3098 62.4418C46.2222 62.6809 46.1784 62.9579 46.1784 63.2727C46.1784 63.59 46.2222 63.8705 46.3098 64.1143C46.3998 64.3558 46.5288 64.5452 46.6969 64.6825C46.8674 64.8175 47.0769 64.8849 47.3255 64.8849ZM54.6621 63.6776V60.5455H56.1749V66H54.7225V65.0092H54.6657C54.5426 65.3288 54.3378 65.5857 54.0513 65.7798C53.7672 65.974 53.4204 66.071 53.0108 66.071C52.6462 66.071 52.3255 65.9882 52.0485 65.8224C51.7715 65.6567 51.5549 65.4212 51.3986 65.1158C51.2447 64.8104 51.1666 64.4446 51.1642 64.0185V60.5455H52.677V63.7486C52.6794 64.0705 52.7658 64.325 52.9363 64.5121C53.1067 64.6991 53.3352 64.7926 53.6216 64.7926C53.8039 64.7926 53.9744 64.7512 54.133 64.6683C54.2916 64.5831 54.4194 64.4576 54.5165 64.2919C54.6159 64.1262 54.6645 63.9214 54.6621 63.6776ZM58.9403 66.103C58.5923 66.103 58.2822 66.0426 58.0099 65.9219C57.7377 65.7988 57.5223 65.6177 57.3636 65.3786C57.2074 65.1371 57.1293 64.8364 57.1293 64.4766C57.1293 64.1735 57.1849 63.919 57.2962 63.7131C57.4074 63.5071 57.5589 63.3414 57.7507 63.2159C57.9425 63.0904 58.1603 62.9957 58.4041 62.9318C58.6503 62.8679 58.9084 62.8229 59.1783 62.7969C59.4955 62.7637 59.7512 62.733 59.9453 62.7045C60.1394 62.6738 60.2803 62.6288 60.3679 62.5696C60.4555 62.5104 60.4993 62.4228 60.4993 62.3068V62.2855C60.4993 62.0606 60.4283 61.8866 60.2862 61.7635C60.1465 61.6404 59.9477 61.5788 59.6896 61.5788C59.4174 61.5788 59.2008 61.6392 59.0398 61.7599C58.8788 61.8783 58.7723 62.0275 58.7202 62.2074L57.321 62.0938C57.392 61.7623 57.5317 61.4759 57.7401 61.2344C57.9484 60.9905 58.2171 60.8035 58.5462 60.6733C58.8776 60.5407 59.2611 60.4744 59.6967 60.4744C59.9998 60.4744 60.2898 60.5099 60.5668 60.581C60.8461 60.652 61.0935 60.7621 61.3089 60.9112C61.5268 61.0604 61.6984 61.2521 61.8239 61.4865C61.9493 61.7185 62.0121 61.9967 62.0121 62.321V66H60.5774V65.2436H60.5348C60.4472 65.4141 60.33 65.5644 60.1832 65.6946C60.0365 65.8224 59.8601 65.9231 59.6541 65.9964C59.4482 66.0675 59.2102 66.103 58.9403 66.103ZM59.3736 65.0589C59.5961 65.0589 59.7926 65.0152 59.9631 64.9276C60.1335 64.8376 60.2673 64.7169 60.3643 64.5653C60.4614 64.4138 60.5099 64.2422 60.5099 64.0504V63.4716C60.4626 63.5024 60.3975 63.5308 60.3146 63.5568C60.2341 63.5805 60.143 63.603 60.0412 63.6243C59.9394 63.6432 59.8376 63.661 59.7358 63.6776C59.634 63.6918 59.5417 63.7048 59.4588 63.7166C59.2813 63.7427 59.1262 63.7841 58.9936 63.8409C58.861 63.8977 58.758 63.9747 58.6847 64.0717C58.6113 64.1664 58.5746 64.2848 58.5746 64.4268C58.5746 64.6328 58.6491 64.7902 58.7983 64.8991C58.9498 65.0057 59.1416 65.0589 59.3736 65.0589ZM64.6985 58.7273V66H63.1857V58.7273H64.6985ZM67.4231 58.7273V66H65.9103V58.7273H67.4231ZM69.5689 68.0455C69.3771 68.0455 69.1972 68.0301 69.0291 67.9993C68.8634 67.9709 68.7261 67.9342 68.6172 67.8892L68.9581 66.7599C69.1357 66.8144 69.2955 66.844 69.4375 66.8487C69.5819 66.8535 69.7062 66.8203 69.8104 66.7493C69.9169 66.6783 70.0033 66.5575 70.0696 66.3871L70.1584 66.1562L68.2017 60.5455H69.7926L70.9219 64.5511H70.9787L72.1186 60.5455H73.7202L71.6001 66.5895C71.4983 66.883 71.3598 67.1387 71.1847 67.3565C71.0118 67.5767 70.7929 67.746 70.5277 67.8643C70.2625 67.9851 69.9429 68.0455 69.5689 68.0455Z" fill="white"/>
<path d="M74.9803 83.852C74.908 83.852 74.837 83.8177 74.7923 83.7544C74.7187 83.6502 74.7423 83.5064 74.8462 83.4313C79.0796 80.4146 82.5965 76.3903 85.017 71.7935C87.5163 67.0449 88.8376 61.6778 88.8376 56.2711C88.8376 56.1432 88.9415 56.0403 89.0677 56.0403C89.1952 56.0403 89.2978 56.1445 89.2978 56.2711C89.2978 61.753 87.958 67.194 85.4245 72.0098C82.9712 76.6712 79.4057 80.751 75.1131 83.8098C75.0723 83.8375 75.0263 83.852 74.9803 83.852Z" fill="white"/>
<path d="M55.6564 90.0238C46.6702 90.0238 38.2217 86.5125 31.8676 80.1376C25.5135 73.7628 22.0137 65.2867 22.0137 56.2711C22.0137 48.9228 24.3263 41.9372 28.7017 36.0702C31.7703 31.9561 35.796 28.5464 40.3437 26.2104C45.1109 23.761 50.2621 22.5198 55.6551 22.5198C65.3092 22.5198 74.5111 26.6905 80.8994 33.961C80.9835 34.0573 80.9743 34.2037 80.8783 34.2882C80.7823 34.3726 80.6377 34.3633 80.5523 34.2671C74.2507 27.0955 65.1751 22.9828 55.6538 22.9828C50.3344 22.9828 45.2529 24.2068 40.5514 26.622C36.0669 28.9263 32.0964 32.2885 29.0685 36.3472C24.7536 42.1337 22.4725 49.023 22.4725 56.2711C22.4725 65.1627 25.9237 73.5227 32.191 79.8105C38.4584 86.0983 46.7899 89.5608 55.6538 89.5608C55.7813 89.5608 55.8839 89.665 55.8839 89.7916C55.8865 89.9195 55.784 90.0238 55.6564 90.0238Z" fill="white"/>
</svg>
