<svg width="30" height="30" viewBox="0 0 34 34" fill="none" xmlns="http://www.w3.org/2000/svg">
<path d="M12.746 33.8765C12.1085 33.9332 11.4682 33.973 10.8562 33.973C7.88337 34.1769 4.9472 33.221 2.66545 31.3063C0.510209 29.1475 -0.279195 25.3618 0.0856913 21.2356L12.746 33.8765ZM33.9647 12.0599C34.1848 8.19473 33.3826 4.6955 31.3452 2.6544C29.3078 0.613309 25.808 -0.18242 21.9334 0.0345968L33.9647 12.0599ZM33.4877 15.5946C32.624 20.0211 30.527 24.1142 27.438 27.4029C24.2941 30.3545 20.4055 32.3958 16.189 33.3077L0.642249 17.7761C1.56611 13.5693 3.61583 9.692 6.57271 6.55788C9.86458 3.47185 13.9616 1.37689 18.3925 0.51402L33.4877 15.5946ZM25.1109 14.5591L19.4318 8.88549C19.164 8.62712 18.8053 8.48415 18.4331 8.48738C18.0608 8.49061 17.7047 8.63978 17.4415 8.90277C17.1782 9.16576 17.0289 9.52151 17.0257 9.89341C17.0224 10.2653 17.1655 10.6236 17.4242 10.8911L19.2571 12.7251L17.0053 14.9747L15.1695 13.1407C14.9018 12.8824 14.5431 12.7394 14.1709 12.7426C13.7986 12.7459 13.4425 12.895 13.1793 13.158C12.916 13.421 12.7667 13.7767 12.7635 14.1487C12.7602 14.5206 12.9033 14.8788 13.162 15.1464L14.9978 16.9804L12.746 19.23L10.9102 17.396C10.6424 17.1376 10.2838 16.9946 9.91149 16.9979C9.53923 17.0011 9.18313 17.1503 8.91988 17.4132C8.65664 17.6762 8.50733 18.032 8.50409 18.4039C8.50086 18.7758 8.64396 19.1341 8.90259 19.4016L14.5818 25.0753C14.8495 25.3336 15.2082 25.4766 15.5804 25.4734C15.9527 25.4701 16.3088 25.321 16.572 25.058C16.8353 24.795 16.9846 24.4392 16.9878 24.0673C16.9911 23.6954 16.848 23.3371 16.5893 23.0696L14.7535 21.2356L17.0053 18.986L18.8411 20.82C19.1089 21.0784 19.4675 21.2214 19.8398 21.2181C20.2121 21.2149 20.5682 21.0657 20.8314 20.8027C21.0947 20.5398 21.244 20.184 21.2472 19.8121C21.2504 19.4402 21.1073 19.0819 20.8487 18.8144L19.0129 16.9804L21.2647 14.7308L23.1005 16.5648C23.3683 16.8232 23.7269 16.9661 24.0992 16.9629C24.4714 16.9597 24.8275 16.8105 25.0908 16.5475C25.354 16.2845 25.5033 15.9288 25.5066 15.5569C25.5098 15.185 25.3667 14.8267 25.1081 14.5591H25.1109Z" fill="white"/>
</svg>
