<svg width="39" height="39" viewBox="0 0 39 39" fill="none" xmlns="http://www.w3.org/2000/svg">
<g clip-path="url(#clip0_1711_15)">
<path d="M22.6038 11.9763C23.2213 11.9763 23.6925 12.48 23.7088 13.13V13.1463C23.7088 13.78 23.2213 14.3 22.6038 14.3C21.9863 14.3 21.4988 13.78 21.4988 13.1463C21.4988 12.4963 21.9863 11.9763 22.6038 11.9763Z" fill="white"/>
<path d="M17.0463 14.3C18.07 18.8175 18.525 25.48 14.8363 31.59C14.8038 31.6387 14.7875 31.6712 14.7713 31.72C14.9338 31.3137 14.9825 30.8262 14.8688 30.3875L10.2863 13.195C10.14 12.7887 10.01 12.285 9.92875 11.8137C9.9125 11.7975 9.9125 11.7812 9.9125 11.7487C9.79875 11.1312 9.75 10.5462 9.75 9.96122C9.75 9.50622 9.7825 9.06747 9.8475 8.62872C11.1638 11.3587 13.4388 13.91 17.0463 14.3Z" fill="white"/>
<path d="M28.1936 5.57378L25.0736 10.5788C24.4399 9.92878 23.5624 9.53878 22.6036 9.53878C21.5311 9.53878 20.5724 10.0263 19.9386 10.79L17.3386 7.60503C16.9486 7.11753 16.2661 7.02003 15.7461 7.34503C15.2261 7.68628 15.0311 8.35253 15.3074 8.90503C15.3236 8.93753 15.8111 9.97753 16.3636 11.7C13.0324 10.7575 11.6349 7.10128 11.0986 4.95628C12.7561 2.04753 15.8436 0.0487763 19.3536 2.62497e-05C23.1724 -0.0487238 26.5036 2.08003 28.1936 5.57378Z" fill="white"/>
<path d="M27.5275 37.1476C27.755 37.5213 27.755 37.9926 27.5438 38.3826C27.3325 38.7563 26.9263 39.0001 26.4875 39.0001H12.5125C12.0738 39.0001 11.6675 38.7563 11.4563 38.3826C11.245 37.9926 11.245 37.5213 11.4725 37.1476L12.7725 35.0188H26.2275L27.5275 37.1476Z" fill="white"/>
<path d="M29.0875 11.7325C29.0875 11.7975 29.0713 11.8625 29.055 11.9275C28.9738 12.35 28.86 12.7725 28.7138 13.1788L24.1313 30.3875C24.0013 30.9238 24.0825 31.4925 24.3588 31.9638L24.7325 32.5813H17.0625C20.6375 26.5038 20.6213 20.0525 19.7763 15.275C20.41 16.1688 21.45 16.7375 22.6038 16.7375C24.44 16.7375 25.9513 15.3238 26.13 13.52L29.1525 8.64502C29.2988 9.65252 29.2825 10.6925 29.0875 11.7325Z" fill="white"/>
</g>
<defs>
<clipPath id="clip0_1711_15">
<rect width="39" height="39" fill="white"/>
</clipPath>
</defs>
</svg>
