<svg width="57" height="49" viewBox="0 0 57 49" fill="none" xmlns="http://www.w3.org/2000/svg">
<g filter="url(#filter0_d_1103_3986)">
<path d="M40.6312 13.2381C38.3998 12.2019 36.0079 11.4388 33.5067 11.0019C33.4615 10.9931 33.4163 11.0152 33.3915 11.0565C33.0838 11.6101 32.7425 12.3333 32.5048 12.9001C29.814 12.4927 27.1377 12.4927 24.5023 12.9001C24.2646 12.32 23.9102 11.6101 23.6025 11.0565C23.5777 11.0152 23.5325 10.9946 23.4873 11.0019C20.9875 11.4374 18.5957 12.2005 16.3628 13.2381C16.3438 13.2455 16.3263 13.2602 16.3161 13.278C11.7789 20.1385 10.5349 26.8308 11.1445 33.4404C11.1474 33.4729 11.1649 33.5039 11.1897 33.5231C14.1839 35.7489 17.0833 37.0995 19.9301 37.994C19.9753 38.0087 20.0235 37.991 20.0526 37.9526C20.7264 37.0228 21.3259 36.0412 21.8407 35.0095C21.8713 34.9489 21.8421 34.8766 21.7794 34.853C20.8271 34.4869 19.9214 34.0412 19.0492 33.5364C18.9807 33.4951 18.9749 33.3962 19.0376 33.3475C19.2213 33.2087 19.4051 33.0641 19.5801 32.9179C19.6122 32.8914 19.6559 32.8855 19.6939 32.9032C25.4226 35.5497 31.6239 35.5497 37.2841 32.9032C37.322 32.8855 37.3657 32.8899 37.3993 32.9179C37.5743 33.0641 37.7581 33.2102 37.9433 33.3489C38.0075 33.3962 38.0031 33.4965 37.9331 33.5379C37.0609 34.053 36.1552 34.4899 35.2014 34.853C35.1387 34.8766 35.1125 34.9504 35.1416 35.0109C35.6667 36.0412 36.2675 37.0228 36.9282 37.9526C36.9559 37.9925 37.0055 38.0087 37.0507 37.9954C39.9107 37.0995 42.8115 35.7489 45.8043 33.5246C45.8305 33.5054 45.8465 33.4759 45.8495 33.4434C46.5787 25.802 44.6273 19.1643 40.6749 13.2809C40.6676 13.2602 40.6501 13.2455 40.6312 13.2381ZM22.6968 29.4168C20.9715 29.4168 19.5509 27.8138 19.5509 25.8463C19.5509 23.8788 20.9437 22.2758 22.6968 22.2758C24.463 22.2758 25.8703 23.892 25.8426 25.8463C25.8426 27.8153 24.4484 29.4168 22.6968 29.4168ZM34.3278 29.4168C32.6039 29.4168 31.182 27.8138 31.182 25.8463C31.182 23.8788 32.5748 22.2758 34.3278 22.2758C36.094 22.2758 37.5014 23.892 37.4737 25.8463C37.4737 27.8153 36.094 29.4168 34.3278 29.4168Z" fill="white"/>
</g>
<defs>
<filter id="filter0_d_1103_3986" x="0" y="0" width="57" height="49" filterUnits="userSpaceOnUse" color-interpolation-filters="sRGB">
<feFlood flood-opacity="0" result="BackgroundImageFix"/>
<feColorMatrix in="SourceAlpha" type="matrix" values="0 0 0 0 0 0 0 0 0 0 0 0 0 0 0 0 0 0 127 0" result="hardAlpha"/>
<feOffset/>
<feGaussianBlur stdDeviation="5.5"/>
<feComposite in2="hardAlpha" operator="out"/>
<feColorMatrix type="matrix" values="0 0 0 0 0.0980392 0 0 0 0 0.635294 0 0 0 0 0.647059 0 0 0 1 0"/>
<feBlend mode="normal" in2="BackgroundImageFix" result="effect1_dropShadow_1103_3986"/>
<feBlend mode="normal" in="SourceGraphic" in2="effect1_dropShadow_1103_3986" result="shape"/>
</filter>
</defs>
</svg>
