<svg width="166" height="219" viewBox="0 0 166 219" fill="none" xmlns="http://www.w3.org/2000/svg">
<path d="M52.8082 167.313L50.4759 159.497C50.0674 157.801 49.5271 155.803 48.8023 153.522C48.15 151.471 46.4699 149.315 44.9414 147.763C42.5628 145.351 41.4296 145.331 39.8285 144.049C39.6836 143.957 39.5189 143.826 39.3805 143.747C39.0511 143.57 38.8073 143.333 38.603 143.077C37.226 141.591 38.5503 139.29 41.3505 139.507C43.4589 139.672 46.8916 140.276 52.4854 146.028C52.5579 146.114 52.6303 146.186 52.6962 146.278C55.6282 150.084 58.3823 139.225 58.883 135.182C59.2059 132.559 62.0456 130.949 64.6218 131.895L78.234 138.245C79.3606 137.851 80.6916 137.916 82.207 138.377C84.2099 139.113 85.3234 141.17 84.8029 143.169L79.2816 165.157L95.4963 218.987H60.5434L52.8082 167.313Z" fill="#FFBE9D"/>
<path d="M25.9526 117.874L36.758 138.994L42.1607 137.495L69.3193 159.536C71.6319 161.41 75.0185 161.114 76.9622 158.859L87.2998 146.876C87.2998 146.876 66.4532 137.916 62.5988 130.501C58.7444 123.086 63.1984 121.404 63.1984 121.404L53.3878 110.281L25.9526 117.874Z" fill="#FF9202"/>
<path d="M39.9668 74.7255C39.9668 74.7255 55.7796 71.2349 78.0362 49.8843C100.293 28.5337 110.749 0.175789 113.47 0.313831C116.191 0.451874 128.09 -5.05669 150.709 44.0405C173.335 93.1377 164.42 104.543 159.92 104.451C155.42 104.359 124.849 95.8591 105.761 98.0218C86.6674 100.184 62.1245 110.117 62.1245 110.117L39.9668 74.7255Z" fill="#FF9202"/>
<path d="M6.3712 101.486L11.7673 111.721L14.1854 116.302C17.4995 122.593 25.1687 125.19 31.6388 122.218L65.5376 110.432L45.7979 65.4697L11.9321 83.4744C5.42244 86.9321 2.94509 94.978 6.3712 101.486Z" fill="#FF9202"/>
<g opacity="0.4">
<path d="M6.3712 101.486L11.7673 111.721L14.1854 116.302C17.4995 122.593 25.1687 125.19 31.6388 122.218L65.5376 110.432L45.7979 65.4697L11.9321 83.4744C5.42244 86.9321 2.94509 94.978 6.3712 101.486Z" fill="black"/>
</g>
<path d="M148.891 44.9344C160.928 71.5306 165.942 95.2345 160.085 97.8705C154.228 100.513 139.719 81.0884 127.682 54.4922C115.644 27.8959 110.63 4.19859 116.488 1.55606C122.345 -1.08647 136.853 18.3381 148.891 44.9344Z" fill="#FF9202"/>
<g opacity="0.5">
<path d="M148.891 44.9344C160.928 71.5306 165.942 95.2345 160.085 97.8705C154.228 100.513 139.719 81.0884 127.682 54.4922C115.644 27.8959 110.63 4.19859 116.488 1.55606C122.345 -1.08647 136.853 18.3381 148.891 44.9344Z" fill="black"/>
</g>
<path d="M3.46552 116.277L12.6501 113.397L6.96411 102.61L0.0723495 106.883L3.46552 116.277Z" fill="#FF9202"/>
<g opacity="0.6">
<path d="M6.96411 102.61L12.6501 113.397L10.7592 113.989L6.14052 103.123L6.96411 102.61Z" fill="black"/>
</g>
<path d="M13.2958 105.095C13.4276 105.391 18.0133 103.616 23.5347 101.125C29.0626 98.6332 33.4243 96.3785 33.2925 96.0762C33.1607 95.7803 28.575 97.5552 23.0537 100.047C17.5258 102.544 13.1641 104.799 13.2958 105.095Z" fill="#FF9202"/>
<path d="M10.4692 98.673C10.6142 98.9688 14.7651 97.2202 19.7395 94.7749C24.714 92.3296 28.6342 90.1143 28.4893 89.8185C28.3443 89.5293 24.2 91.2712 19.219 93.7166C14.2445 96.1685 10.3243 98.3837 10.4692 98.673Z" fill="#FF9202"/>
<path d="M16.8604 111.833C16.9065 111.99 18.0002 111.74 19.7396 111.201C20.6093 110.932 21.6372 110.597 22.7836 110.202C23.9169 109.795 25.0896 109.197 26.3547 108.631C31.3818 106.304 35.2164 104.023 35.0913 103.754C34.9397 103.432 30.8416 105.259 25.8605 107.56C24.6087 108.125 23.4556 108.75 22.3619 109.203C21.2682 109.644 20.2799 110.058 19.4629 110.419C17.8157 111.149 16.8142 111.681 16.8604 111.833Z" fill="#FF9202"/>
<path d="M124.348 39.018C124.348 39.018 138.092 30.512 145.616 49.0426C153.134 67.5732 138.672 70.6167 138.672 70.6167C132.749 61.4598 127.946 50.9686 124.348 39.018Z" fill="#FF9202"/>
<g opacity="0.5">
<path d="M109.728 16.9386C109.649 16.9517 109.84 18.2073 110.268 20.4751C110.703 22.7364 111.316 26.0231 112.199 30.0592C112.778 32.0444 113.417 34.2136 114.096 36.5407C114.439 37.7042 114.794 38.9137 115.163 40.1495C115.348 40.7674 115.532 41.3984 115.723 42.0361C115.928 42.6671 116.198 43.2916 116.435 43.9292C117.423 46.4797 118.464 49.1551 119.538 51.9226C119.808 52.6128 120.079 53.3161 120.355 54.0195C120.625 54.7294 121.001 55.3934 121.324 56.0901C121.996 57.4706 122.675 58.8773 123.366 60.2906C124.058 61.7105 124.743 63.1106 125.415 64.491C125.765 65.1747 126.061 65.8846 126.45 66.5288C126.839 67.1796 127.214 67.8238 127.596 68.468C129.112 71.025 130.581 73.4967 131.978 75.85C132.334 76.435 132.656 77.0266 133.032 77.5788C133.421 78.1244 133.796 78.6634 134.172 79.1893C134.923 80.2476 135.654 81.2731 136.359 82.2657C137.776 84.2377 139.094 86.0849 140.299 87.7677C142.928 90.9426 145.129 93.4537 146.644 95.1891C148.166 96.9245 149.042 97.8514 149.102 97.8053C149.168 97.7528 148.41 96.7207 147 94.8999C145.531 93.0462 143.475 90.4365 140.945 87.2418C139.785 85.5393 138.514 83.6855 137.15 81.6938C136.465 80.7012 135.76 79.6692 135.028 78.6108C134.666 78.085 134.29 77.5459 133.915 77.0003C133.552 76.4482 133.236 75.85 132.894 75.2715C131.523 72.9248 130.087 70.4597 128.604 67.9092C128.229 67.2716 127.853 66.6274 127.478 65.9766C127.089 65.3324 126.806 64.6291 126.456 63.9454C125.791 62.5716 125.112 61.178 124.427 59.7713C123.742 58.3646 123.063 56.971 122.391 55.6037C122.068 54.9135 121.693 54.2496 121.423 53.5528C121.146 52.856 120.876 52.1592 120.599 51.4756C119.505 48.7344 118.458 46.0853 117.45 43.5611C117.206 42.9301 116.929 42.3122 116.718 41.6877C116.521 41.0566 116.33 40.4321 116.139 39.8208C115.756 38.5916 115.381 37.4018 115.018 36.2514C114.294 33.9507 113.615 31.8078 112.996 29.8423C112.04 25.8916 111.263 22.6706 110.709 20.3765C110.156 18.1547 109.807 16.9254 109.728 16.9386Z" fill="black"/>
</g>
<g opacity="0.4">
<path d="M84.0056 145.397C82.7538 147.665 81.469 149.972 79.6175 151.786C77.7595 153.601 75.2163 154.889 72.627 154.626C70.0442 154.363 67.5932 152.227 67.5668 149.63C66.3282 150.564 64.424 150.057 63.3962 148.894C62.3684 147.73 62.0324 146.12 61.9138 144.575C60.2271 145.568 57.8815 144.779 56.7614 143.182C55.6347 141.584 55.5688 139.435 56.1091 137.555C56.656 135.681 57.7431 134.018 58.8171 132.381C57.5191 132.487 56.1421 132.579 54.9825 131.987C53.8228 131.402 53.0388 129.87 53.7174 128.759C54.1128 128.109 54.877 127.787 55.6084 127.556C57.6443 126.919 59.0674 126.413 61.189 126.656C61.6831 126.662 60.3391 132.23 73.6284 139.842C81.4624 144.358 84.0056 145.397 84.0056 145.397Z" fill="black"/>
</g>
<path d="M54.0798 153.443C54.0864 153.502 54.9758 153.338 56.4056 153.371C57.8287 153.403 59.8251 153.712 61.7951 154.659C63.7651 155.599 65.2542 156.953 66.1766 158.044C67.1056 159.136 67.5273 159.931 67.58 159.898C67.5998 159.885 67.5141 159.681 67.323 159.32C67.132 158.965 66.8157 158.465 66.3677 157.887C65.4848 156.736 63.976 155.316 61.9467 154.343C59.9239 153.377 57.8683 153.094 56.4122 153.121C55.6808 153.134 55.0944 153.2 54.6925 153.272C54.2906 153.357 54.0732 153.423 54.0798 153.443Z" fill="#EB996E"/>
<path d="M83.1357 141.867C80.9944 143.918 79.5317 146.186 77.285 148.25C76.2638 149.19 74.6825 150.964 73.312 151.201C71.9416 151.438 71.0653 151.254 70.525 149.978C70.0836 148.946 70.8742 147.533 71.4145 146.685C72.8442 144.444 74.2147 142.695 75.282 140.953C75.7828 140.138 75.1371 139.967 74.8999 140.348C73.8721 141.413 72.3303 142.34 71.4079 143.497C70.1429 145.088 69.9123 147.191 66.6113 146.521C66.1765 146.435 65.735 146.284 65.3858 146.015C64.1406 145.061 64.0879 143.412 64.6149 142.09C65.0234 141.052 65.7482 140.171 66.4532 139.31C65.0432 140.894 63.5081 142.564 61.2745 142.748C59.9765 142.853 58.6654 142.248 58.1383 141.058C57.4794 139.559 58.4282 138.107 59.3769 136.937C61.0637 134.859 62.948 132.94 64.9971 131.211C65.7614 130.567 66.7299 130.205 67.7314 130.199C68.891 130.192 70.3405 130.409 71.0521 131.415C72.3501 133.236 71.9482 134.853 71.9482 134.853C71.9482 134.853 74.8538 133.387 77.1862 134.919C79.5186 136.457 80.0984 139.093 80.0984 139.093L83.1357 141.867Z" fill="#FFBE9D"/>
<path d="M67.6921 129.561C68.5881 128.661 68.799 127.011 68.1006 125.644C67.6064 124.677 66.9871 123.737 66.3546 123.527C63.5939 122.6 51.53 124.677 51.6355 127.353C51.7475 130.094 52.6238 131.303 59.1729 130.357C60.3259 130.192 62.1312 129.962 62.1312 129.962L63.7125 132.329L67.6921 129.561Z" fill="#FFBE9D"/>
<path d="M65.5309 140.749C65.6297 140.808 66.5456 138.942 68.4167 137.265C70.2748 135.569 72.225 134.84 72.1789 134.741C72.1657 134.702 71.6584 134.833 70.9007 135.188C70.143 135.543 69.1415 136.154 68.1861 137.016C67.2374 137.877 66.5258 138.81 66.1041 139.533C65.6693 140.243 65.4914 140.73 65.5309 140.749Z" fill="#EB996E"/>
<path d="M63.5016 132.539C63.5609 132.598 64.3582 131.947 65.4453 131.283C65.9856 130.955 66.4863 130.672 66.8619 130.508C67.2374 130.33 67.4812 130.284 67.4812 130.232C67.4812 130.186 67.1979 130.153 66.7762 130.278C66.3545 130.396 65.8209 130.652 65.2608 130.994C64.1473 131.671 63.4226 132.467 63.5016 132.539Z" fill="#EB996E"/>
<path d="M61.4724 130.054C61.479 130.127 62.5331 130.16 63.7982 129.792C64.4241 129.601 64.9578 129.299 65.2872 129.016C65.6167 128.733 65.755 128.497 65.7221 128.47C65.6562 128.411 64.9117 129.121 63.6993 129.463C62.5002 129.818 61.4592 129.943 61.4724 130.054Z" fill="#EB996E"/>
<path d="M73.2001 144.056C73.2396 144.082 73.6679 143.543 74.3004 142.629C74.9461 141.742 75.7697 140.414 77.1138 139.435C78.4579 138.455 80.0392 138.225 81.0999 138.383C82.1805 138.534 82.7471 138.981 82.7801 138.915C82.7932 138.902 82.6681 138.777 82.3979 138.613C82.1278 138.442 81.6995 138.258 81.1395 138.146C80.0326 137.916 78.3393 138.127 76.9095 139.159C75.4864 140.197 74.6892 141.578 74.0896 142.498C73.5164 143.445 73.1606 144.03 73.2001 144.056Z" fill="#EB996E"/>
<path d="M63.9695 170.678C63.9563 170.77 66.1701 171.086 68.8978 171.388C71.6321 171.684 73.8591 171.848 73.8657 171.756C73.8788 171.664 71.6716 171.349 68.9373 171.046C66.203 170.751 63.9826 170.586 63.9695 170.678Z" fill="#EB996E"/>
</svg>
