<svg width="390" height="300" viewBox="0 0 390 300" fill="none" xmlns="http://www.w3.org/2000/svg">
<g filter="url(#filter0_i_0_1)">
<path d="M390 300L-3.05176e-05 300L-4.29075e-06 -3.57731e-06L390 3.05176e-05L390 300Z" fill="#1F1F1F"/>
</g>
<path d="M204.61 243.785C204.184 241.613 202.045 239.918 199.829 240.003C197.639 240.08 195.644 241.894 195.346 244.066C195.031 241.902 193.019 240.105 190.829 240.046C188.622 239.986 186.491 241.698 186.082 243.87C185.784 245.454 186.329 247.098 187.216 248.444C188.111 249.781 189.321 250.872 190.522 251.945C192.21 253.444 193.769 254.858 195.448 256.357C197.119 254.841 198.542 253.418 200.212 251.902C201.405 250.82 202.616 249.722 203.493 248.376C204.397 247.022 204.925 245.369 204.61 243.785Z" fill="#EBEBEB"/>
<defs>
<filter id="filter0_i_0_1" x="0" y="0" width="390" height="304" filterUnits="userSpaceOnUse" color-interpolation-filters="sRGB">
<feFlood flood-opacity="0" result="BackgroundImageFix"/>
<feBlend mode="normal" in="SourceGraphic" in2="BackgroundImageFix" result="shape"/>
<feColorMatrix in="SourceAlpha" type="matrix" values="0 0 0 0 0 0 0 0 0 0 0 0 0 0 0 0 0 0 127 0" result="hardAlpha"/>
<feMorphology radius="5" operator="erode" in="SourceAlpha" result="effect1_innerShadow_0_1"/>
<feOffset dy="4"/>
<feGaussianBlur stdDeviation="30"/>
<feComposite in2="hardAlpha" operator="arithmetic" k2="-1" k3="1"/>
<feColorMatrix type="matrix" values="0 0 0 0 0 0 0 0 0 0 0 0 0 0 0 0 0 0 1 0"/>
<feBlend mode="normal" in2="shape" result="effect1_innerShadow_0_1"/>
</filter>
</defs>
</svg>
