<svg width="1440" height="300" viewBox="0 0 1440 300" fill="none" xmlns="http://www.w3.org/2000/svg">
<g filter="url(#filter0_i_0_1)">
<rect x="1518" y="300" width="1596" height="300" transform="rotate(-180 1518 300)" fill="#1F1F1F"/>
</g>
<path d="M940.309 83L944.306 90.3082L951.618 94.303L944.306 98.2978L940.309 105.606L936.312 98.2978L929 94.303L936.312 90.3082L940.309 83Z" fill="#F5F5F5"/>
<path d="M1249.5 201L1251.44 204.556L1255 206.5L1251.44 208.444L1249.5 212L1247.56 208.444L1244 206.5L1247.56 204.556L1249.5 201Z" fill="#F5F5F5"/>
<path d="M898.827 247L900.182 249.47L902.653 250.824L900.182 252.17L898.827 254.649L897.48 252.17L895 250.824L897.48 249.47L898.827 247Z" fill="#E0E0E0"/>
<path d="M552.281 44L554.505 48.0544L558.562 50.2776L554.505 52.5007L552.281 56.5551L550.057 52.5007L546 50.2776L550.057 48.0544L552.281 44Z" fill="#FF9100"/>
<path d="M1035.73 190L1036.68 191.755L1038.45 192.717L1036.68 193.68L1035.73 195.434L1034.76 193.68L1033 192.717L1034.76 191.755L1035.73 190Z" fill="#FF9100"/>
<path d="M1266.72 67L1267.68 68.7547L1269.44 69.7172L1267.68 70.6797L1266.72 72.4343L1265.76 70.6797L1264 69.7172L1265.76 68.7547L1266.72 67Z" fill="#FF9100"/>
<path d="M466.61 234.785C466.184 232.613 464.044 230.918 461.829 231.003C459.638 231.08 457.644 232.894 457.346 235.066C457.031 232.903 455.019 231.105 452.829 231.046C450.622 230.986 448.491 232.698 448.082 234.87C447.784 236.454 448.329 238.098 449.216 239.444C450.11 240.781 451.321 241.872 452.522 242.945C454.21 244.444 455.769 245.858 457.448 247.357C459.119 245.841 460.542 244.418 462.212 242.902C463.405 241.821 464.615 240.722 465.493 239.376C466.397 238.022 466.925 236.369 466.61 234.785Z" fill="#EBEBEB"/>
<path d="M105.556 44L103.237 48.2267L99.0001 50.5406L103.237 52.8545L105.556 57.0812L107.875 52.8545L112.112 50.5406L107.875 48.2267L105.556 44Z" fill="#EBEBEB"/>
<circle cx="327" cy="134" r="121" fill="url(#paint0_radial_0_1)" fill-opacity="0.4"/>
<path d="M251.808 248.313L249.476 240.497C249.067 238.801 248.527 236.803 247.802 234.522C247.15 232.471 245.47 230.315 243.941 228.763C241.563 226.351 240.43 226.331 238.829 225.049C238.684 224.957 238.519 224.826 238.38 224.747C238.051 224.57 237.807 224.333 237.603 224.077C236.226 222.591 237.55 220.29 240.351 220.507C242.459 220.672 245.892 221.276 251.485 227.028C251.558 227.114 251.63 227.186 251.696 227.278C254.628 231.084 257.382 220.225 257.883 216.182C258.206 213.559 261.046 211.949 263.622 212.895L277.234 219.245C278.361 218.851 279.692 218.916 281.207 219.377C283.21 220.113 284.323 222.17 283.803 224.169L278.282 246.157L294.496 299.987H259.543L251.808 248.313Z" fill="#FFBE9D"/>
<path d="M224.953 198.874L235.758 219.994L241.161 218.495L268.319 240.536C270.632 242.41 274.018 242.114 275.962 239.859L286.3 227.876C286.3 227.876 265.453 218.916 261.599 211.501C257.744 204.086 262.198 202.404 262.198 202.404L252.388 191.281L224.953 198.874Z" fill="#FF9202"/>
<path d="M238.967 155.725C238.967 155.725 254.78 152.235 277.036 130.884C299.293 109.534 309.749 81.1758 312.47 81.3138C315.191 81.4519 327.09 75.9433 349.709 125.041C372.335 174.138 363.42 185.543 358.92 185.451C354.42 185.359 323.849 176.859 304.761 179.022C285.667 181.184 261.125 191.117 261.125 191.117L238.967 155.725Z" fill="#FF9202"/>
<path d="M205.371 182.486L210.767 192.721L213.185 197.302C216.499 203.593 224.169 206.19 230.639 203.218L264.538 191.432L244.798 146.47L210.932 164.474C204.422 167.932 201.945 175.978 205.371 182.486Z" fill="#FF9202"/>
<g opacity="0.4">
<path d="M205.371 182.486L210.767 192.721L213.185 197.302C216.499 203.593 224.169 206.19 230.639 203.218L264.538 191.432L244.798 146.47L210.932 164.474C204.422 167.932 201.945 175.978 205.371 182.486Z" fill="black"/>
</g>
<path d="M347.891 125.934C359.928 152.531 364.942 176.235 359.085 178.87C353.228 181.513 338.719 162.088 326.682 135.492C314.644 108.896 309.63 85.1986 315.488 82.5561C321.345 79.9135 335.853 99.3381 347.891 125.934Z" fill="#FF9202"/>
<g opacity="0.5">
<path d="M347.891 125.934C359.928 152.531 364.942 176.235 359.085 178.87C353.228 181.513 338.719 162.088 326.682 135.492C314.644 108.896 309.63 85.1986 315.488 82.5561C321.345 79.9135 335.853 99.3381 347.891 125.934Z" fill="black"/>
</g>
<path d="M202.466 197.277L211.65 194.397L205.964 183.61L199.072 187.883L202.466 197.277Z" fill="#FF9202"/>
<g opacity="0.6">
<path d="M205.964 183.61L211.65 194.397L209.759 194.989L205.141 184.123L205.964 183.61Z" fill="black"/>
</g>
<path d="M212.296 186.095C212.428 186.391 217.013 184.616 222.535 182.125C228.063 179.633 232.424 177.379 232.293 177.076C232.161 176.78 227.575 178.555 222.054 181.047C216.526 183.544 212.164 185.799 212.296 186.095Z" fill="#FF9202"/>
<path d="M209.469 179.673C209.614 179.969 213.765 178.22 218.74 175.775C223.714 173.33 227.634 171.114 227.489 170.818C227.344 170.529 223.2 172.271 218.219 174.717C213.245 177.168 209.324 179.384 209.469 179.673Z" fill="#FF9202"/>
<path d="M215.86 192.833C215.906 192.99 217 192.74 218.74 192.201C219.609 191.932 220.637 191.597 221.784 191.202C222.917 190.795 224.09 190.197 225.355 189.631C230.382 187.304 234.216 185.023 234.091 184.754C233.94 184.432 229.842 186.259 224.861 188.56C223.609 189.125 222.456 189.75 221.362 190.203C220.268 190.644 219.28 191.058 218.463 191.419C216.816 192.149 215.814 192.681 215.86 192.833Z" fill="#FF9202"/>
<path d="M323.348 120.018C323.348 120.018 337.092 111.512 344.616 130.043C352.134 148.573 337.672 151.617 337.672 151.617C331.749 142.46 326.946 131.969 323.348 120.018Z" fill="#FF9202"/>
<g opacity="0.5">
<path d="M308.728 97.9386C308.649 97.9517 308.84 99.2073 309.268 101.475C309.703 103.736 310.316 107.023 311.199 111.059C311.778 113.044 312.417 115.214 313.096 117.541C313.439 118.704 313.794 119.914 314.163 121.149C314.348 121.767 314.532 122.398 314.723 123.036C314.928 123.667 315.198 124.292 315.435 124.929C316.423 127.48 317.464 130.155 318.538 132.923C318.808 133.613 319.079 134.316 319.355 135.019C319.625 135.729 320.001 136.393 320.324 137.09C320.996 138.471 321.675 139.877 322.366 141.291C323.058 142.71 323.743 144.111 324.415 145.491C324.765 146.175 325.061 146.885 325.45 147.529C325.839 148.18 326.214 148.824 326.596 149.468C328.112 152.025 329.581 154.497 330.978 156.85C331.334 157.435 331.656 158.027 332.032 158.579C332.421 159.124 332.796 159.663 333.172 160.189C333.923 161.248 334.654 162.273 335.359 163.266C336.776 165.238 338.094 167.085 339.299 168.768C341.928 171.943 344.129 174.454 345.644 176.189C347.166 177.925 348.042 178.851 348.102 178.805C348.168 178.753 347.41 177.721 346 175.9C344.531 174.046 342.475 171.436 339.945 168.242C338.785 166.539 337.514 164.686 336.15 162.694C335.465 161.701 334.76 160.669 334.028 159.611C333.666 159.085 333.29 158.546 332.915 158C332.552 157.448 332.236 156.85 331.894 156.272C330.523 153.925 329.087 151.46 327.604 148.909C327.229 148.272 326.853 147.627 326.478 146.977C326.089 146.332 325.806 145.629 325.456 144.945C324.791 143.572 324.112 142.178 323.427 140.771C322.742 139.365 322.063 137.971 321.391 136.604C321.068 135.913 320.693 135.25 320.423 134.553C320.146 133.856 319.876 133.159 319.599 132.476C318.505 129.734 317.458 127.085 316.45 124.561C316.206 123.93 315.929 123.312 315.718 122.688C315.521 122.057 315.33 121.432 315.139 120.821C314.756 119.592 314.381 118.402 314.018 117.251C313.294 114.951 312.615 112.808 311.996 110.842C311.04 106.892 310.263 103.671 309.709 101.377C309.156 99.1547 308.807 97.9254 308.728 97.9386Z" fill="black"/>
</g>
<g opacity="0.4">
<path d="M283.006 226.397C281.754 228.665 280.469 230.972 278.618 232.786C276.76 234.601 274.216 235.889 271.627 235.626C269.044 235.363 266.593 233.227 266.567 230.63C265.328 231.564 263.424 231.057 262.396 229.894C261.368 228.73 261.032 227.12 260.914 225.575C259.227 226.568 256.881 225.779 255.761 224.182C254.635 222.584 254.569 220.435 255.109 218.555C255.656 216.681 256.743 215.018 257.817 213.381C256.519 213.487 255.142 213.579 253.982 212.987C252.823 212.402 252.039 210.87 252.717 209.759C253.113 209.109 253.877 208.787 254.608 208.556C256.644 207.919 258.067 207.413 260.189 207.656C260.683 207.662 259.339 213.23 272.628 220.842C280.462 225.358 283.006 226.397 283.006 226.397Z" fill="black"/>
</g>
<path d="M253.08 234.443C253.086 234.502 253.976 234.338 255.406 234.371C256.829 234.403 258.825 234.712 260.795 235.659C262.765 236.599 264.254 237.953 265.177 239.044C266.106 240.136 266.527 240.931 266.58 240.898C266.6 240.885 266.514 240.681 266.323 240.32C266.132 239.965 265.816 239.465 265.368 238.887C264.485 237.736 262.976 236.316 260.947 235.343C258.924 234.377 256.868 234.094 255.412 234.121C254.681 234.134 254.094 234.2 253.693 234.272C253.291 234.357 253.073 234.423 253.08 234.443Z" fill="#EB996E"/>
<path d="M282.136 222.867C279.994 224.918 278.532 227.186 276.285 229.25C275.264 230.19 273.682 231.964 272.312 232.201C270.942 232.438 270.065 232.254 269.525 230.978C269.084 229.946 269.874 228.533 270.414 227.685C271.844 225.444 273.215 223.695 274.282 221.953C274.783 221.138 274.137 220.967 273.9 221.348C272.872 222.413 271.33 223.34 270.408 224.497C269.143 226.088 268.912 228.191 265.611 227.521C265.176 227.435 264.735 227.284 264.386 227.015C263.141 226.061 263.088 224.412 263.615 223.09C264.023 222.052 264.748 221.171 265.453 220.31C264.043 221.894 262.508 223.564 260.274 223.748C258.977 223.853 257.665 223.248 257.138 222.058C256.479 220.559 257.428 219.107 258.377 217.937C260.064 215.859 261.948 213.94 263.997 212.211C264.761 211.567 265.73 211.205 266.731 211.199C267.891 211.192 269.341 211.409 270.052 212.415C271.35 214.236 270.948 215.853 270.948 215.853C270.948 215.853 273.854 214.387 276.186 215.919C278.519 217.457 279.098 220.093 279.098 220.093L282.136 222.867Z" fill="#FFBE9D"/>
<path d="M266.692 210.561C267.588 209.661 267.799 208.011 267.101 206.644C266.606 205.677 265.987 204.737 265.355 204.527C262.594 203.6 250.53 205.677 250.635 208.353C250.747 211.094 251.624 212.303 258.173 211.357C259.326 211.192 261.131 210.962 261.131 210.962L262.713 213.329L266.692 210.561Z" fill="#FFBE9D"/>
<path d="M264.531 221.749C264.63 221.808 265.546 219.942 267.417 218.265C269.275 216.569 271.225 215.84 271.179 215.741C271.166 215.702 270.658 215.833 269.901 216.188C269.143 216.543 268.141 217.154 267.186 218.016C266.237 218.877 265.526 219.81 265.104 220.533C264.669 221.243 264.491 221.73 264.531 221.749Z" fill="#EB996E"/>
<path d="M262.502 213.539C262.561 213.598 263.358 212.947 264.445 212.283C264.986 211.955 265.486 211.672 265.862 211.508C266.237 211.33 266.481 211.284 266.481 211.232C266.481 211.186 266.198 211.153 265.776 211.278C265.355 211.396 264.821 211.652 264.261 211.994C263.147 212.671 262.423 213.467 262.502 213.539Z" fill="#EB996E"/>
<path d="M260.472 211.054C260.479 211.127 261.533 211.16 262.798 210.792C263.424 210.601 263.958 210.299 264.287 210.016C264.617 209.733 264.755 209.497 264.722 209.47C264.656 209.411 263.912 210.121 262.699 210.463C261.5 210.818 260.459 210.943 260.472 211.054Z" fill="#EB996E"/>
<path d="M272.2 225.056C272.24 225.082 272.668 224.543 273.3 223.629C273.946 222.742 274.77 221.414 276.114 220.435C277.458 219.455 279.039 219.225 280.1 219.383C281.18 219.534 281.747 219.981 281.78 219.915C281.793 219.902 281.668 219.777 281.398 219.613C281.128 219.442 280.7 219.258 280.139 219.146C279.033 218.916 277.339 219.127 275.91 220.159C274.486 221.197 273.689 222.578 273.09 223.498C272.516 224.445 272.161 225.03 272.2 225.056Z" fill="#EB996E"/>
<path d="M262.969 251.678C262.956 251.77 265.17 252.086 267.898 252.388C270.632 252.684 272.859 252.848 272.866 252.756C272.879 252.664 270.672 252.349 267.937 252.046C265.203 251.751 262.983 251.586 262.969 251.678Z" fill="#EB996E"/>
<defs>
<filter id="filter0_i_0_1" x="-78" y="0" width="1596" height="304" filterUnits="userSpaceOnUse" color-interpolation-filters="sRGB">
<feFlood flood-opacity="0" result="BackgroundImageFix"/>
<feBlend mode="normal" in="SourceGraphic" in2="BackgroundImageFix" result="shape"/>
<feColorMatrix in="SourceAlpha" type="matrix" values="0 0 0 0 0 0 0 0 0 0 0 0 0 0 0 0 0 0 127 0" result="hardAlpha"/>
<feMorphology radius="5" operator="erode" in="SourceAlpha" result="effect1_innerShadow_0_1"/>
<feOffset dy="4"/>
<feGaussianBlur stdDeviation="30"/>
<feComposite in2="hardAlpha" operator="arithmetic" k2="-1" k3="1"/>
<feColorMatrix type="matrix" values="0 0 0 0 0 0 0 0 0 0 0 0 0 0 0 0 0 0 1 0"/>
<feBlend mode="normal" in2="shape" result="effect1_innerShadow_0_1"/>
</filter>
<radialGradient id="paint0_radial_0_1" cx="0" cy="0" r="1" gradientUnits="userSpaceOnUse" gradientTransform="translate(327 134) rotate(90) scale(121)">
<stop stop-color="#E18933"/>
<stop offset="0.0001" stop-color="#E18833"/>
<stop offset="1" stop-color="#BE3B31" stop-opacity="0"/>
</radialGradient>
</defs>
</svg>
