<svg width="46" height="39" viewBox="0 0 46 39" fill="none" xmlns="http://www.w3.org/2000/svg">
<g filter="url(#filter0_d_662_713)">
<path d="M32.8117 9.94178C31.0815 9.14792 29.2269 8.56327 27.2875 8.22853C27.2524 8.22175 27.2173 8.23871 27.1981 8.27037C26.9595 8.69445 26.6949 9.24857 26.5106 9.68282C24.4241 9.3707 22.349 9.3707 20.3055 9.68282C20.1212 9.23839 19.8464 8.69445 19.6078 8.27037C19.5886 8.23871 19.5535 8.22288 19.5185 8.22853C17.5802 8.56214 15.7256 9.14679 13.9942 9.94178C13.9795 9.94744 13.9659 9.95875 13.958 9.97232C10.4399 15.2286 9.47529 20.3559 9.94799 25.4199C9.95025 25.4447 9.96382 25.4685 9.98305 25.4832C12.3047 27.1885 14.5528 28.2233 16.7603 28.9086C16.7953 28.9199 16.8327 28.9063 16.8553 28.8769C17.3777 28.1645 17.8425 27.4124 18.2417 26.622C18.2655 26.5756 18.2428 26.5202 18.1942 26.5021C17.4558 26.2216 16.7535 25.8801 16.0772 25.4934C16.0241 25.4617 16.0196 25.3859 16.0682 25.3486C16.2107 25.2423 16.3532 25.1315 16.4889 25.0195C16.5138 24.9992 16.5477 24.9947 16.5771 25.0082C21.0191 27.0359 25.8275 27.0359 30.2164 25.0082C30.2458 24.9947 30.2797 24.998 30.3057 25.0195C30.4414 25.1315 30.5839 25.2434 30.7275 25.3497C30.7773 25.3859 30.7739 25.4628 30.7196 25.4945C30.0434 25.8892 29.3411 26.2239 28.6015 26.5021C28.5529 26.5202 28.5325 26.5767 28.5551 26.6231C28.9623 27.4124 29.4282 28.1645 29.9405 28.8769C29.9619 28.9074 30.0004 28.9199 30.0354 28.9097C32.2531 28.2233 34.5023 27.1885 36.8229 25.4843C36.8432 25.4696 36.8557 25.447 36.8579 25.4221C37.4233 19.5677 35.9103 14.4822 32.8456 9.97458C32.84 9.95875 32.8264 9.94744 32.8117 9.94178ZM18.9055 22.3371C17.5677 22.3371 16.4663 21.109 16.4663 19.6016C16.4663 18.0941 17.5462 16.866 18.9055 16.866C20.275 16.866 21.3663 18.1043 21.3448 19.6016C21.3448 21.1101 20.2637 22.3371 18.9055 22.3371ZM27.9241 22.3371C26.5875 22.3371 25.4849 21.109 25.4849 19.6016C25.4849 18.0941 26.5648 16.866 27.9241 16.866C29.2936 16.866 30.3849 18.1043 30.3634 19.6016C30.3634 21.1101 29.2936 22.3371 27.9241 22.3371Z" fill="white"/>
</g>
<defs>
<filter id="filter0_d_662_713" x="0.835938" y="0.227051" width="45.1387" height="38.6862" filterUnits="userSpaceOnUse" color-interpolation-filters="sRGB">
<feFlood flood-opacity="0" result="BackgroundImageFix"/>
<feColorMatrix in="SourceAlpha" type="matrix" values="0 0 0 0 0 0 0 0 0 0 0 0 0 0 0 0 0 0 127 0" result="hardAlpha"/>
<feOffset dy="1"/>
<feGaussianBlur stdDeviation="4.5"/>
<feComposite in2="hardAlpha" operator="out"/>
<feColorMatrix type="matrix" values="0 0 0 0 0 0 0 0 0 0 0 0 0 0 0 0 0 0 0.21 0"/>
<feBlend mode="normal" in2="BackgroundImageFix" result="effect1_dropShadow_662_713"/>
<feBlend mode="normal" in="SourceGraphic" in2="effect1_dropShadow_662_713" result="shape"/>
</filter>
</defs>
</svg>
