<svg width="23" height="25" viewBox="0 0 23 25" fill="none" xmlns="http://www.w3.org/2000/svg">
<path d="M0.674931 18.75C1.53655 20.2454 3.44734 20.7592 4.94275 19.8976C4.94378 19.897 4.94476 19.8964 4.94578 19.8958L5.40931 19.6281C6.28431 20.3767 7.29007 20.9573 8.37596 21.3406V21.875C8.37596 23.6009 9.77508 25 11.501 25C13.2268 25 14.626 23.6009 14.626 21.875V21.3406C15.712 20.9567 16.7178 20.3754 17.5926 19.626L18.0582 19.8948C19.554 20.7577 21.4661 20.2447 22.3291 18.7489C23.192 17.2532 22.679 15.341 21.1832 14.4781L20.7207 14.2114C20.9289 13.0786 20.9289 11.9172 20.7207 10.7843L21.1832 10.5177C22.679 9.65474 23.192 7.74263 22.3291 6.24683C21.4661 4.75107 19.554 4.23804 18.0582 5.10098L17.5947 5.3687C16.7188 4.621 15.7124 4.0415 14.626 3.65937V3.125C14.626 1.39912 13.2268 0 11.501 0C9.77508 0 8.37596 1.39912 8.37596 3.125V3.65937C7.28992 4.04331 6.28411 4.62456 5.40931 5.37397L4.94368 5.1042C3.44788 4.24121 1.53577 4.75425 0.672831 6.25C-0.190108 7.74575 0.32288 9.65791 1.81868 10.5208L2.28118 10.7875C2.07298 11.9204 2.07298 13.0817 2.28118 14.2146L1.81868 14.4812C0.327031 15.3465 -0.184297 17.2549 0.674931 18.75ZM11.501 8.33335C13.8021 8.33335 15.6676 10.1988 15.6676 12.5C15.6676 14.8012 13.8021 16.6667 11.501 16.6667C9.19978 16.6667 7.33431 14.8012 7.33431 12.5C7.33431 10.1988 9.19978 8.33335 11.501 8.33335Z" fill="white"/>
</svg>
