<svg width="46" height="35" viewBox="0 0 46 35" fill="none" xmlns="http://www.w3.org/2000/svg">
<g filter="url(#filter0_d_0_1)">
<path d="M24.3084 16.5701C24.3084 20.8266 20.8819 24.2769 16.6537 24.2769C12.4265 24.2769 9 20.8266 9 16.5701C9 12.3135 12.4265 8.86328 16.6548 8.86328C20.8819 8.86328 24.3084 12.3135 24.3084 16.5701Z" fill="white"/>
</g>
<g filter="url(#filter1_d_0_1)">
<path d="M32.7064 16.5699C32.7064 20.5765 30.9931 23.8244 28.8796 23.8244C26.766 23.8244 25.0527 20.5765 25.0527 16.5699C25.0527 12.5633 26.766 9.31543 28.8796 9.31543C30.992 9.31543 32.7064 12.5633 32.7064 16.5699Z" fill="white"/>
</g>
<g filter="url(#filter2_d_0_1)">
<path d="M36.1407 16.57C36.1407 20.1594 35.5379 23.0702 34.7949 23.0702C34.052 23.0702 33.4492 20.1605 33.4492 16.57C33.4492 12.9795 34.052 10.0698 34.7949 10.0698C35.5379 10.0698 36.1407 12.9807 36.1407 16.57Z" fill="white"/>
</g>
<defs>
<filter id="filter0_d_0_1" x="0" y="0.863281" width="33.3086" height="33.4136" filterUnits="userSpaceOnUse" color-interpolation-filters="sRGB">
<feFlood flood-opacity="0" result="BackgroundImageFix"/>
<feColorMatrix in="SourceAlpha" type="matrix" values="0 0 0 0 0 0 0 0 0 0 0 0 0 0 0 0 0 0 127 0" result="hardAlpha"/>
<feOffset dy="1"/>
<feGaussianBlur stdDeviation="4.5"/>
<feComposite in2="hardAlpha" operator="out"/>
<feColorMatrix type="matrix" values="0 0 0 0 0 0 0 0 0 0 0 0 0 0 0 0 0 0 0.21 0"/>
<feBlend mode="normal" in2="BackgroundImageFix" result="effect1_dropShadow_0_1"/>
<feBlend mode="normal" in="SourceGraphic" in2="effect1_dropShadow_0_1" result="shape"/>
</filter>
<filter id="filter1_d_0_1" x="16.0527" y="1.31543" width="25.6533" height="32.5089" filterUnits="userSpaceOnUse" color-interpolation-filters="sRGB">
<feFlood flood-opacity="0" result="BackgroundImageFix"/>
<feColorMatrix in="SourceAlpha" type="matrix" values="0 0 0 0 0 0 0 0 0 0 0 0 0 0 0 0 0 0 127 0" result="hardAlpha"/>
<feOffset dy="1"/>
<feGaussianBlur stdDeviation="4.5"/>
<feComposite in2="hardAlpha" operator="out"/>
<feColorMatrix type="matrix" values="0 0 0 0 0 0 0 0 0 0 0 0 0 0 0 0 0 0 0.21 0"/>
<feBlend mode="normal" in2="BackgroundImageFix" result="effect1_dropShadow_0_1"/>
<feBlend mode="normal" in="SourceGraphic" in2="effect1_dropShadow_0_1" result="shape"/>
</filter>
<filter id="filter2_d_0_1" x="24.4492" y="2.06982" width="20.6914" height="31.0004" filterUnits="userSpaceOnUse" color-interpolation-filters="sRGB">
<feFlood flood-opacity="0" result="BackgroundImageFix"/>
<feColorMatrix in="SourceAlpha" type="matrix" values="0 0 0 0 0 0 0 0 0 0 0 0 0 0 0 0 0 0 127 0" result="hardAlpha"/>
<feOffset dy="1"/>
<feGaussianBlur stdDeviation="4.5"/>
<feComposite in2="hardAlpha" operator="out"/>
<feColorMatrix type="matrix" values="0 0 0 0 0 0 0 0 0 0 0 0 0 0 0 0 0 0 0.21 0"/>
<feBlend mode="normal" in2="BackgroundImageFix" result="effect1_dropShadow_0_1"/>
<feBlend mode="normal" in="SourceGraphic" in2="effect1_dropShadow_0_1" result="shape"/>
</filter>
</defs>
</svg>
