<svg width="233" height="247" viewBox="0 0 233 247" fill="none" xmlns="http://www.w3.org/2000/svg">
<g clip-path="url(#clip0_503_1067)">
<path d="M120.49 17.2133L134.121 19.4004L130.571 2.53778L120.49 17.2133Z" fill="#A5D8DB"/>
<path d="M180.705 18.9889L185.297 24.7175L189.923 16.8018L180.705 18.9889Z" fill="#E05F55"/>
<path d="M163.151 16.8018L158.461 12.4961H163.714L163.151 16.8018Z" fill="#F5BB4C"/>
<path d="M213.598 143.216L206.446 149.623L215.223 154L213.598 143.216Z" fill="#FFC7CE"/>
<path d="M54.8755 42.8266L57.1077 48.6018L64.9709 41.7416L54.8755 42.8266Z" fill="#F5BB4C"/>
<path d="M59.9229 62.8024L64.4364 68.6094L68.254 62.1411L59.9229 62.8024Z" fill="#E05F55"/>
<path d="M85.4333 56.2825L84.0342 61.1172L90.2972 60.5833L85.4333 56.2825Z" fill="#F7D7D0"/>
<path d="M181.379 111.436L175.187 109.944L179.783 107.394L181.379 111.436Z" fill="#19A2A5"/>
<path d="M125.558 52.3294L131.448 59.9121L136.432 51.4673L125.558 52.3294Z" fill="#A5D8DB"/>
<path d="M231.383 11.4161C231.001 11.6194 230.618 11.8226 230.234 12.0235C230.148 12.0675 229.829 12.2757 229.753 12.2684C228.435 12.1165 227.041 12.0994 225.598 12.3321C225.056 12.4202 224.51 12.5451 223.968 12.7117C222.018 14.3673 221.403 16.5202 221.038 18.4354C220.65 20.4658 220.472 22.555 219.107 24.5829C218.524 25.4474 217.73 26.2361 216.732 26.8312C215.38 27.6395 213.841 28.531 212.371 29.0943C209.68 30.1229 207.117 29.5057 205.113 28.7146C203.123 27.9309 201.205 26.89 198.713 26.9071C198.058 26.7847 197.37 26.8043 196.836 27.0859C196.792 27.0982 196.752 27.1202 196.711 27.1447C196.659 27.157 196.608 27.1643 196.556 27.179C195.787 27.926 195.334 28.7955 195.027 29.6478C194.373 31.4626 194.295 33.3901 192.807 35.1241C191.83 36.263 190.492 36.9855 189.12 37.7203C187.61 38.5285 186.125 39.3833 184.488 39.7947C181.399 40.5736 178.644 39.8437 176.407 38.8298C176.493 38.8689 177.863 38.0411 178.022 37.9554C178.206 37.8574 179.509 37.0394 179.649 37.1031C181.622 37.997 183.944 38.6608 186.606 38.2909C187.228 38.2052 187.86 38.0558 188.482 37.8525C188.5 37.8476 188.517 37.8403 188.534 37.8354C189.433 37.1129 190.1 36.263 190.524 35.3544C191.376 33.5346 191.335 31.661 192.518 29.8633C193.128 28.9375 194.008 28.2615 195.076 27.6811C196.449 26.9365 197.904 26.0156 199.391 25.565C205.321 23.7697 208.213 28.5456 213.777 27.8231C214.111 27.7791 214.429 27.708 214.748 27.6199C214.787 27.5831 214.826 27.5488 214.863 27.5121C215.772 26.6304 216.357 25.5993 216.757 24.5902C217.575 22.5305 217.578 20.5344 218.188 18.4869C218.506 17.4141 218.997 16.3071 219.844 15.3103C220.856 14.1249 222.224 13.4146 223.647 12.6529C225.191 11.83 226.629 11.0487 228.303 10.7058C229.932 10.3727 231.513 10.3727 232.993 10.5442C232.789 10.5172 231.623 11.2887 231.383 11.4161Z" fill="#19A2A5"/>
<path d="M143.34 61.1025L137.148 59.6134L141.742 57.0638L143.34 61.1025Z" fill="#F7D7D0"/>
<path d="M87.166 38.1145L97.0605 34.0709L87.9134 24.3501L87.166 38.1145Z" fill="#FFC7CE"/>
<path d="M163.962 58.1415L168.554 63.8701L173.18 55.9544L163.962 58.1415Z" fill="#E05F55"/>
<path d="M8.89712 -0.0364332L7.32646 6.13306L4.83691 1.509L8.89712 -0.0364332Z" fill="#E05F55"/>
<path d="M203.135 56.2678L204.755 65.1926L217.962 57.4851L203.135 56.2678Z" fill="#F5BB4C"/>
<path d="M155.554 136.841L151.6 143.028L160.585 144.865L155.554 136.841Z" fill="#A5D8DB"/>
<path d="M31.2024 75.7952L23.648 64.1762L15.4565 75.7192L31.2024 75.7952Z" fill="#A5D8DB"/>
<path d="M85.4333 56.2825L84.0342 61.1172L90.2972 60.5833L85.4333 56.2825Z" fill="#F7D7D0"/>
<path d="M181.379 111.436L175.187 109.944L179.783 107.394L181.379 111.436Z" fill="#19A2A5"/>
<path d="M97.21 85.0947L105.977 89.011L106.597 74.5853L97.21 85.0947Z" fill="#FFC7CE"/>
<path d="M143.34 61.1025L137.148 59.6134L141.742 57.0638L143.34 61.1025Z" fill="#F7D7D0"/>
<path d="M219.81 -4.98619L219.144 0.201172L225.492 -1.34426L219.81 -4.98619Z" fill="#FFC7CE"/>
<path d="M61.4741 8.70483L66.7056 8.64606L64.2945 2.57452L61.4741 8.70483Z" fill="#A5D8DB"/>
<path d="M33.29 29.268L33.8806 34.2129L39.384 31.3131L33.29 29.268Z" fill="#19A2A5"/>
<path d="M151.35 39.2412L156.582 39.1824L154.17 33.1109L151.35 39.2412Z" fill="#FFC7CE"/>
<path d="M147.214 83.4906L142.737 84.2278L145.045 81.2814L147.214 83.4906Z" fill="#F5BB4C"/>
<path d="M105.012 103.684L99.9272 102.45L100.765 108.928L105.012 103.684Z" fill="#F5BB4C"/>
<path d="M59.3424 134.786L56.1815 130.62L52.7363 136.17L59.3424 134.786Z" fill="#19A2A5"/>
<path d="M220.78 108.705L227.624 108.732L225.073 102.227L220.78 108.705Z" fill="#A5D8DB"/>
<path d="M121.24 33.275L116.418 37.0933L117.214 32.0822L121.24 33.275Z" fill="#F5BB4C"/>
<path d="M74.5342 124.455L81.378 124.482L78.8272 117.98L74.5342 124.455Z" fill="#A5D8DB"/>
<path d="M13.6482 42.2315L9.17139 42.9688L11.4796 40.0224L13.6482 42.2315Z" fill="#FFC7CE"/>
<path d="M212.326 90.63L208.771 93.4465L209.359 89.7507L212.326 90.63Z" fill="#FFC7CE"/>
<path d="M40.1339 -3.83011C40.2711 -3.5607 40.4035 -3.2913 40.5309 -3.02679C41.0283 -1.99813 41.1582 -0.849466 41.0307 0.277157C40.7686 2.62837 39.4356 4.40893 38.2839 6.38787C37.6934 7.40428 37.1739 8.52355 37.1911 9.72365C37.1935 9.94898 37.2156 10.1719 37.2548 10.3947C37.588 10.7254 37.9507 11.0217 38.3476 11.2911C40.8249 12.9664 44.0398 13.7501 46.941 14.2889C47.1247 14.3232 47.5437 15.3249 47.6417 15.4964C47.8035 15.7829 47.9652 16.0695 48.1245 16.356C48.1514 16.4075 48.2788 16.7087 48.318 16.7161C45.6619 16.2238 42.8636 15.5111 40.4892 14.1861C39.465 13.6154 38.502 12.8831 37.8527 11.8912C37.7105 11.6732 37.5758 11.4479 37.4459 11.2226C37.3699 11.4087 36.4511 9.70652 36.5907 9.70162C36.3506 9.27791 36.1129 8.84685 35.9757 8.37906C35.3239 6.1503 36.7917 4.12973 37.9139 2.34183C39.0925 0.463308 39.9991 -1.73606 39.6169 -3.99665C39.5973 -4.11911 39.5728 -4.23913 39.5434 -4.35914C39.3327 -4.56732 39.1097 -4.7608 38.8573 -4.93469C37.936 -5.57148 36.8505 -5.92662 35.7601 -6.14949C33.5425 -6.60504 31.2514 -6.47523 29.0412 -6.98466C27.9533 -7.23692 26.8678 -7.6239 25.9636 -8.29498C24.9369 -9.05912 24.3881 -10.1686 23.773 -11.2609C23.2388 -12.2112 22.7414 -13.1027 22.6263 -14.2073C22.5184 -15.2457 22.6826 -16.2964 22.8934 -17.3129C23.4202 -19.8551 24.1259 -22.2357 23.4937 -24.8392C23.3687 -25.3584 23.1996 -25.8654 22.9987 -26.3601C22.9105 -26.4777 22.8223 -26.5928 22.7267 -26.7079C21.8691 -27.7513 20.8253 -28.6085 19.6369 -29.2477C19.578 -29.2796 19.4359 -29.5808 19.4261 -29.598C19.2595 -29.8821 19.0978 -30.1686 18.9361 -30.4527C18.7743 -30.7393 18.6126 -31.0258 18.4533 -31.3124C18.4117 -31.3859 18.3259 -31.6381 18.2598 -31.6724C20.2078 -30.6242 21.4869 -29.0665 22.592 -27.2565C22.5258 -27.4721 23.6481 -25.5274 23.5084 -25.6499C24.4983 -23.791 25.2261 -21.9026 25.155 -19.718C25.084 -17.5039 24.2043 -15.4147 24.0058 -13.2178C23.9372 -12.461 23.996 -11.7704 24.1577 -11.0723C24.2484 -10.9891 24.3415 -10.9083 24.4371 -10.8323C24.8781 -10.4796 25.3731 -10.2004 25.8901 -9.97757C28.017 -9.05422 30.3399 -9.08116 32.6016 -8.84114C34.7824 -8.60847 37.2107 -8.10149 38.6343 -6.27195C38.9872 -5.81885 39.3082 -5.31677 39.6046 -4.79754C39.8105 -4.46445 40.0359 -4.05054 40.1339 -3.83011ZM23.6579 -11.6161C23.7363 -11.5181 23.8171 -11.425 23.9004 -11.3344C23.9298 -11.3026 23.9617 -11.2732 23.9911 -11.2438C23.5231 -12.1916 23.2266 -12.1524 23.6579 -11.6161Z" fill="#FFC7CE"/>
<path d="M47.8038 98.2419C47.696 100.872 46.8678 103.322 45.0839 105.278C44.094 106.366 43.1139 107.637 41.8642 108.448C40.8841 109.084 39.7422 109.396 38.5832 109.469C36.2431 109.621 33.9447 108.942 31.6291 108.739C30.4309 108.634 29.1273 108.602 27.9953 109.075C27.7772 109.618 27.6351 110.191 27.5395 110.767C27.1156 113.385 27.8458 116.047 27.3141 118.656C27.0666 119.871 26.4932 120.779 25.7165 121.673C25.9541 121.619 24.1507 123.562 23.9865 123.564C23.3543 124.196 22.6584 124.752 21.8033 125.065C18.7306 126.192 15.6627 124.561 13.2124 122.795C13.308 122.864 15.4006 120.201 15.5353 120.299C17.7504 121.896 20.3723 123.363 23.2024 122.824C23.6949 122.731 24.1777 122.577 24.631 122.357C25.023 121.411 25.1529 120.363 25.1872 119.344C25.273 116.64 24.604 113.78 25.8194 111.228C26.4418 109.92 27.6571 108.871 28.6373 107.843C29.5757 106.858 30.6024 106.322 31.9746 106.209C34.349 106.016 36.6915 106.723 39.0389 106.932C40.1588 107.03 41.3006 107.025 42.3935 106.736C42.9448 106.589 43.4814 106.373 43.9715 106.082C44.0107 106.057 44.0499 106.033 44.0891 106.008C45.3314 103.836 45.5446 101.291 45.4833 98.8224C45.4245 96.4295 45.1672 93.8995 45.966 91.5924C46.4586 90.1694 47.4166 89.1555 48.4237 88.0729C49.5068 86.9096 50.5114 85.7976 52.0012 85.1609C55.0641 83.8481 58.4383 84.5412 61.5649 85.2123C61.4399 85.1854 60.5382 86.3414 60.4157 86.4712C60.276 86.6206 59.438 87.7496 59.242 87.708C56.4804 87.1153 53.5719 86.4957 50.781 87.2696C50.1561 87.4435 49.5484 87.6811 48.9824 87.9946C48.8819 88.0509 48.7839 88.1072 48.6884 88.1685C48.2767 88.9718 48.0292 89.851 47.8945 90.7425C47.5171 93.2309 47.9067 95.7462 47.8038 98.2419ZM44.1847 105.954C44.3954 105.817 44.5963 105.668 44.7899 105.509C45.5029 104.909 45.2996 104.514 44.1847 105.954ZM49.0192 87.5978C48.9285 87.7374 48.8452 87.8819 48.7643 88.0264C49.7053 87.1423 49.5019 86.8606 49.0192 87.5978Z" fill="#F5BB4C"/>
<path d="M167.949 116.471C169.715 118.602 170.056 121.553 169.975 124.225C169.933 125.646 169.664 127.052 169.637 128.472C169.622 129.177 169.686 129.888 169.924 130.556C169.955 130.649 169.992 130.74 170.031 130.831C174.601 133.361 180.636 130.593 184.834 134.247C186.091 135.342 187.331 136.611 188.367 137.911C189.352 139.148 190.021 140.627 190.325 142.178C190.928 145.261 190.114 148.43 188.701 151.176C188.73 151.117 187.549 150.013 187.446 149.905C187.333 149.787 186.157 148.727 186.216 148.609C187.458 146.192 188.232 143.483 187.997 140.747C187.877 139.342 187.475 137.968 186.799 136.726C186.701 136.545 186.593 136.368 186.483 136.192C186.184 135.984 185.87 135.79 185.525 135.626C183.035 134.446 180.193 134.713 177.522 134.593C176.094 134.529 174.667 134.313 173.337 133.77C172.019 133.231 171.083 132.366 170.105 131.362C169.09 130.321 167.86 129.295 167.397 127.867C166.951 126.498 167.209 125.033 167.356 123.637C167.64 120.919 167.655 117.919 166.432 115.406C166.371 115.281 166.307 115.161 166.241 115.041C166.035 114.911 165.824 114.791 165.594 114.688C164.555 114.22 163.42 114.01 162.291 113.895C159.916 113.657 157.471 113.85 155.155 113.177C153.947 112.827 152.867 112.207 151.948 111.35C151.759 111.174 151.568 110.995 151.379 110.814C151.33 110.774 151.235 110.684 151.112 110.559C150.184 109.667 149.267 108.719 148.508 107.705C146.925 105.589 146.327 102.805 147.091 100.26C147.055 100.38 148.221 101.401 148.346 101.531C148.49 101.678 149.632 102.636 149.576 102.827C148.895 105.092 149.289 107.544 150.51 109.557C150.529 109.591 150.551 109.623 150.571 109.655C150.733 109.763 150.897 109.866 151.071 109.961C152.093 110.522 153.234 110.809 154.384 110.965C156.746 111.289 159.172 111.061 161.509 111.595C162.644 111.854 163.729 112.317 164.631 113.064C165.824 114.061 166.959 115.276 167.949 116.471ZM170.191 131.166C170.223 131.225 170.254 131.284 170.286 131.34C170.367 131.48 170.475 131.607 170.553 131.744C170.433 131.531 170.311 131.34 170.191 131.166ZM169.294 130.365C169.48 130.498 169.669 130.62 169.862 130.733C169.029 129.738 168.473 129.78 169.294 130.365ZM166.182 114.943C166.106 114.811 166.028 114.678 165.944 114.551C165.854 114.414 165.758 114.279 165.66 114.149C165.04 113.336 164.805 113.802 166.182 114.943Z" fill="#F5BB4C"/>
<path d="M4.47676 138.426L0 139.165L2.30822 136.219L4.47676 138.426Z" fill="#F7D7D0"/>
<path d="M121.784 92.9052L116.753 93.6301L119.851 99.1677L121.784 92.9052Z" fill="#A5D8DB"/>
<path d="M113.167 128.232L119.67 126.104L115.2 120.733L113.167 128.232Z" fill="#F7D7D0"/>
</g>
<defs>
<clipPath id="clip0_503_1067">
<rect width="233" height="247" fill="white" transform="matrix(1 0 0 -1 0 247)"/>
</clipPath>
</defs>
</svg>
