<svg width="14" height="14" viewBox="0 0 14 14" fill="none" xmlns="http://www.w3.org/2000/svg">
<g clip-path="url(#clip0_1516_1592)">
<path d="M7 0C3.12081 0 0 3.12081 0 7C0 10.8792 3.12081 14 7 14C10.8792 14 14 10.8792 14 7C14 3.12081 10.8792 0 7 0Z" fill="#2775CA"/>
<path d="M5.07509 5.89165C5.07509 6.91246 5.68759 7.26246 6.91259 7.40827C7.78759 7.52496 7.96259 7.75827 7.96259 8.16665C7.96259 8.57503 7.6709 8.83746 7.08759 8.83746C6.56259 8.83746 6.2709 8.66246 6.12509 8.22496C6.0959 8.13746 6.0084 8.07915 5.9209 8.07915H5.45428C5.33759 8.07915 5.25009 8.16665 5.25009 8.28327V8.31246C5.36678 8.95415 5.89178 9.44996 6.56259 9.50827V10.2083C6.56259 10.325 6.65009 10.4125 6.7959 10.4417H7.2334C7.35009 10.4417 7.43759 10.3542 7.46678 10.2083V9.53746C8.34178 9.42077 8.8959 8.83746 8.8959 8.10827C8.8959 7.14577 8.31259 6.76665 7.08759 6.62077C6.2709 6.47496 6.0084 6.29996 6.0084 5.83327C6.0084 5.36658 6.41678 5.04577 6.9709 5.04577C7.72928 5.04577 7.99178 5.36665 8.07928 5.80415C8.1084 5.92077 8.1959 5.97915 8.2834 5.97915H8.77928C8.8959 5.97915 8.9834 5.89165 8.9834 5.77496V5.74577C8.86678 5.01665 8.40009 4.49165 7.43759 4.34577V3.64577C7.43759 3.52915 7.35009 3.44165 7.20428 3.41246H6.76678C6.65009 3.41246 6.56259 3.49996 6.5334 3.64577V4.34577C5.6584 4.49165 5.07509 5.10415 5.07509 5.89165Z" fill="white"/>
<path d="M8.48742 2.82913C10.7624 3.64575 11.9291 6.18325 11.0832 8.42913C10.6457 9.65413 9.68323 10.5874 8.48742 11.0249C8.37073 11.0833 8.31242 11.1708 8.31242 11.3166V11.7249C8.31242 11.8416 8.37073 11.9291 8.48742 11.9583C8.51661 11.9583 8.57492 11.9583 8.60411 11.9291C11.3749 11.0541 12.8916 8.10825 12.0166 5.33744C11.4916 3.70413 10.2374 2.44994 8.60411 1.92494C8.48742 1.86663 8.37073 1.92494 8.34161 2.04163C8.31242 2.07075 8.31242 2.09994 8.31242 2.15825V2.56663C8.31242 2.65413 8.39992 2.77075 8.48742 2.82913ZM5.39573 11.9291C5.51242 11.9874 5.62911 11.9291 5.65823 11.8124C5.68742 11.7833 5.68742 11.7541 5.68742 11.6958V11.2874C5.68742 11.1708 5.59992 11.0541 5.51242 10.9958C3.23742 10.1791 2.07073 7.64163 2.91661 5.39575C3.35411 4.17075 4.31661 3.23744 5.51242 2.79994C5.62911 2.74163 5.68742 2.65413 5.68742 2.50825V2.09994C5.68742 1.98325 5.62911 1.89575 5.51242 1.86663C5.48323 1.86663 5.42492 1.86663 5.39573 1.89575C2.62492 2.77075 1.10823 5.71663 1.98323 8.48744C2.50823 10.1499 3.79161 11.4041 5.39573 11.9291V11.9291Z" fill="white"/>
</g>
<defs>
<clipPath id="clip0_1516_1592">
<rect width="14" height="14" fill="white" transform="translate(14 14) rotate(-180)"/>
</clipPath>
</defs>
</svg>
