<svg width="113" height="118" viewBox="0 0 113 118" fill="none" xmlns="http://www.w3.org/2000/svg">
<path d="M84.1314 89.5614C99.6196 74.0227 99.6196 48.8294 84.1314 33.2906C68.6433 17.7519 43.532 17.7519 28.0438 33.2906C12.5556 48.8294 12.5556 74.0227 28.0438 89.5614C43.532 105.1 68.6433 105.1 84.1314 89.5614Z" fill="#6385DB"/>
<path d="M84.1314 85.396C99.6196 69.8573 99.6196 44.664 84.1314 29.1252C68.6433 13.5865 43.532 13.5865 28.0438 29.1252C12.5556 44.664 12.5556 69.8573 28.0438 85.396C43.532 100.935 68.6433 100.935 84.1314 85.396Z" fill="#739AF0"/>
<path d="M75.4133 84.8408C75.341 84.8408 75.27 84.8065 75.2253 84.7432C75.1517 84.639 75.1753 84.4952 75.2805 84.42C79.514 81.4034 83.0309 77.379 85.4513 72.7822C87.9506 68.0337 89.2719 62.6666 89.2719 57.2599C89.2719 57.1319 89.3758 57.0291 89.502 57.0291C89.6296 57.0291 89.7321 57.1333 89.7321 57.2599C89.7321 62.7418 88.3924 68.1828 85.8589 72.9985C83.4056 77.66 79.84 81.7398 75.5474 84.7973C75.5067 84.8263 75.4593 84.8408 75.4133 84.8408Z" fill="white"/>
<path d="M22.6783 57.4921C22.5508 57.4921 22.4482 57.3878 22.4482 57.2612C22.4482 49.9129 24.7609 42.9273 29.1363 37.0603C32.2049 32.9462 36.2306 29.5365 40.7783 27.2005C45.5455 24.7511 50.6967 23.5099 56.091 23.5099C65.7451 23.5099 74.947 27.6807 81.3353 34.9512C81.4194 35.0474 81.4102 35.1938 81.3142 35.2783C81.2182 35.3627 81.0736 35.3535 80.9882 35.2572C74.6866 28.0856 65.611 23.9729 56.0897 23.9729C50.7703 23.9729 45.6888 25.1969 40.9873 27.6121C36.5028 29.9164 32.5323 33.2786 29.5044 37.3373C25.1895 43.1239 22.9084 50.0132 22.9084 57.2612C22.9097 57.3878 22.8059 57.4921 22.6783 57.4921Z" fill="white"/>
<path d="M38.6479 48.7622H41.3156L50.0888 60.123V48.7622H52.9194V65.1934H50.5095L41.4786 53.5041V65.1934H38.6479V48.7622Z" fill="white"/>
<path d="M56.4062 56.9789C56.4062 52.3544 59.9626 48.4817 64.9928 48.4817C70.023 48.4817 73.5333 52.3082 73.5333 56.9789C73.5333 61.6034 69.9769 65.4761 64.9468 65.4761C59.9153 65.4761 56.4062 61.6496 56.4062 56.9789ZM70.5147 56.9789C70.5147 53.7868 68.1981 51.1343 64.9455 51.1343C61.6928 51.1343 59.4236 53.7393 59.4236 56.9789C59.4236 60.1709 61.7401 62.8235 64.9915 62.8235C68.2441 62.8235 70.5147 60.2184 70.5147 56.9789Z" fill="white"/>
</svg>
