<svg width="113" height="118" viewBox="0 0 113 118" fill="none" xmlns="http://www.w3.org/2000/svg">
<path d="M84.1314 89.0301C99.6196 73.4913 99.6196 48.298 84.1314 32.7593C68.6432 17.2205 43.532 17.2205 28.0438 32.7593C12.5556 48.298 12.5556 73.4913 28.0438 89.0301C43.532 104.569 68.6432 104.569 84.1314 89.0301Z" fill="#B6702B"/>
<path d="M84.1314 84.8647C99.6196 69.3259 99.6196 44.1326 84.1314 28.5938C68.6432 13.0551 43.532 13.0551 28.0438 28.5938C12.5556 44.1326 12.5556 69.3259 28.0438 84.8647C43.532 100.403 68.6433 100.403 84.1314 84.8647Z" fill="#E18933"/>
<path d="M37.5948 58.4664L31.0908 48.5143H34.4828L39.0686 55.7914L43.7018 48.5143H47.0004L40.4964 58.3965V64.9454H37.5948V58.4664Z" fill="white"/>
<path d="M49.5254 48.5143H61.6683V51.0969H52.4033V55.3693H60.6152V57.9519H52.4033V62.3654H61.7853V64.9481H49.5254V48.5143Z" fill="white"/>
<path d="M64.1021 62.5518L65.8336 60.4862C67.4007 61.8474 68.9692 62.6217 71.0044 62.6217C72.7819 62.6217 73.906 61.7999 73.906 60.5086C73.906 59.3347 73.2513 58.7015 70.209 57.9734C66.7223 57.1517 64.7581 56.1189 64.7581 53.0442C64.7581 50.2268 67.0983 48.2786 70.3497 48.2786C72.7359 48.2786 74.6318 49.0067 76.2923 50.3442L74.7475 52.5272C73.2736 51.4245 71.7998 50.8375 70.3023 50.8375C68.6182 50.8375 67.6347 51.7054 67.6347 52.8332C67.6347 54.1008 68.3828 54.664 71.5185 55.4158C74.9815 56.2613 76.7827 57.5052 76.7827 60.2751C76.7827 63.3498 74.3728 65.1806 70.9334 65.1806C68.4302 65.1806 66.0676 64.3114 64.1021 62.5518Z" fill="white"/>
<path d="M74.9803 84.3105C74.908 84.3105 74.837 84.2762 74.7923 84.2129C74.7187 84.1087 74.7423 83.9649 74.8462 83.8898C79.0796 80.8731 82.5965 76.8488 85.017 72.252C87.5163 67.5034 88.8376 62.1363 88.8376 56.7296C88.8376 56.6017 88.9415 56.4988 89.0677 56.4988C89.1952 56.4988 89.2978 56.603 89.2978 56.7296C89.2978 62.2115 87.958 67.6525 85.4245 72.4683C82.9712 77.1297 79.4057 81.2095 75.1131 84.2683C75.0723 84.296 75.0263 84.3105 74.9803 84.3105Z" fill="white"/>
<path d="M55.6564 90.4822C46.6702 90.4822 38.2217 86.971 31.8676 80.5961C25.5135 74.2212 22.0137 65.7452 22.0137 56.7296C22.0137 49.3813 24.3263 42.3957 28.7017 36.5287C31.7703 32.4146 35.796 29.0049 40.3437 26.6689C45.1109 24.2195 50.2621 22.9783 55.6551 22.9783C65.3092 22.9783 74.5111 27.149 80.8994 34.4195C80.9835 34.5158 80.9743 34.6622 80.8783 34.7467C80.7823 34.8311 80.6377 34.8218 80.5523 34.7255C74.2507 27.554 65.1751 23.4413 55.6538 23.4413C50.3344 23.4413 45.2529 24.6653 40.5514 27.0805C36.0669 29.3848 32.0964 32.747 29.0685 36.8057C24.7536 42.5922 22.4725 49.4815 22.4725 56.7296C22.4725 65.6212 25.9237 73.9812 32.191 80.269C38.4584 86.5568 46.7899 90.0193 55.6538 90.0193C55.7813 90.0193 55.8839 90.1235 55.8839 90.2501C55.8865 90.378 55.784 90.4822 55.6564 90.4822Z" fill="white"/>
</svg>
